<svg id="a26fe18e-6663-47aa-abbe-6d80a9f4f327" data-name="Layer 1" xmlns="http://www.w3.org/2000/svg" viewBox="0 0 313.2 289.95"><title>main_logo_red</title><path d="M99.92,160.36a1.82,1.82,0,0,1-1.63-1L60.38,84.52,47.26,158.69a1.83,1.83,0,0,1-3.63-.32V37.5a1.83,1.83,0,0,1,3.66,0v100l10.43-59A1.84,1.84,0,0,1,61.16,78l40.39,79.73a1.83,1.83,0,0,1-.8,2.46A1.91,1.91,0,0,1,99.92,160.36Z" transform="translate(-17.69 -22.77)" fill="#bf455b"/><path d="M45.46,37.9A7.57,7.57,0,1,1,53,30.34,7.57,7.57,0,0,1,45.46,37.9Zm0-11.47a3.91,3.91,0,1,0,3.9,3.91A3.91,3.91,0,0,0,45.46,26.43Z" transform="translate(-17.69 -22.77)" fill="#bf455b"/><path d="M74.6,61.31H46.1a1.83,1.83,0,1,1,0-3.66H74.6a1.83,1.83,0,1,1,0,3.66Z" transform="translate(-17.69 -22.77)" fill="#bf455b"/><path d="M60.27,63.54a1,1,0,0,1-1-1V55.66a1,1,0,1,1,2.07,0V62.5A1,1,0,0,1,60.27,63.54Z" transform="translate(-17.69 -22.77)" fill="#bf455b"/><path d="M64.09,63.54a1,1,0,0,1-1-1V55.66a1,1,0,1,1,2.07,0V62.5A1,1,0,0,1,64.09,63.54Z" transform="translate(-17.69 -22.77)" fill="#bf455b"/><path d="M67.91,63.54a1,1,0,0,1-1-1V55.66a1,1,0,1,1,2.07,0V62.5A1,1,0,0,1,67.91,63.54Z" transform="translate(-17.69 -22.77)" fill="#bf455b"/><path d="M74.6,84.24A26.7,26.7,0,0,1,50.38,68.75a1.83,1.83,0,0,1,3-2,14.4,14.4,0,1,0,.92-20.26,1.83,1.83,0,0,1-2.82-2.26,26.67,26.67,0,1,1,23.1,40ZM58.94,74.41a23,23,0,1,0,1.6-35A17.52,17.52,0,0,1,64.09,39a18.07,18.07,0,1,1-5.15,35.39Z" transform="translate(-17.69 -22.77)" fill="#bf455b"/><path d="M52,68" transform="translate(-17.69 -22.77)" fill="#bf455b" stroke="#fff" stroke-linecap="round" stroke-linejoin="round" stroke-width="23"/><path d="M53.08,45.15" transform="translate(-17.69 -22.77)" fill="#bf455b" stroke="#fff" stroke-linecap="round" stroke-linejoin="round" stroke-width="23"/><path d="M64.09,75.16a18.1,18.1,0,0,1-13.4-6,1.83,1.83,0,0,1,2.71-2.46,14.4,14.4,0,1,0,.92-20.26,1.83,1.83,0,0,1-2.48-2.69A18.07,18.07,0,1,1,64.09,75.16Z" transform="translate(-17.69 -22.77)" fill="#bf455b"/><path d="M83.9,110.54H67.62a1.25,1.25,0,0,1,0-2.49H83.9a1.25,1.25,0,0,1,0,2.49Z" transform="translate(-17.69 -22.77)" fill="#bf455b"/><path d="M85.11,115H71.26a1,1,0,1,1,0-2.07H85.11a1,1,0,1,1,0,2.07Z" transform="translate(-17.69 -22.77)" fill="#bf455b"/><path d="M88.46,120.71H74.6a1,1,0,0,1,0-2.07H88.46a1,1,0,0,1,0,2.07Z" transform="translate(-17.69 -22.77)" fill="#bf455b"/><path d="M118.55,160.2a1.9,1.9,0,0,1-.4,0,1.82,1.82,0,0,1-1.38-2.18l12.49-56L145,32.32a1.83,1.83,0,0,1,3.58,0l25.8,125.16a1.83,1.83,0,0,1-3.59.74L146.66,41.41l-13.82,61.38-12.5,56A1.84,1.84,0,0,1,118.55,160.2Z" transform="translate(-17.69 -22.77)" fill="#bf455b"/><path d="M146.47,134.77a1.83,1.83,0,0,1-1.64-1l-15.41-30.55a1.83,1.83,0,1,1,3.27-1.65l13.72,27.21,13.05-27.51a1.83,1.83,0,0,1,3.31,1.57l-14.65,30.89a1.84,1.84,0,0,1-1.63,1.05Z" transform="translate(-17.69 -22.77)" fill="#bf455b"/><path d="M146.58,159.72a1.83,1.83,0,0,1-1.83-1.83V32.73a1.83,1.83,0,1,1,3.66,0V157.89A1.83,1.83,0,0,1,146.58,159.72Z" transform="translate(-17.69 -22.77)" fill="#bf455b"/><path d="M151.36,143.16h-9.88a1,1,0,0,1,0-2.07h9.88a1,1,0,0,1,0,2.07Z" transform="translate(-17.69 -22.77)" fill="#bf455b"/><path d="M151.36,147.94h-9.88a1,1,0,0,1,0-2.07h9.88a1,1,0,0,1,0,2.07Z" transform="translate(-17.69 -22.77)" fill="#bf455b"/><path d="M151.36,152.71h-9.88a1,1,0,0,1,0-2.07h9.88a1,1,0,0,1,0,2.07Z" transform="translate(-17.69 -22.77)" fill="#bf455b"/><path d="M206.3,162.11a1.84,1.84,0,0,1-1.8-1.45L177.75,34.06a1.83,1.83,0,0,1,3.46-1.15l24.71,53.47L230.42,32a1.83,1.83,0,0,1,3.47,1.12l-25.8,127.55a1.83,1.83,0,0,1-1.79,1.47Zm-8.2-49.46,8.16,38.59,7.79-38.54L206,95.21l-7.79,17.3A.91.91,0,0,1,198.1,112.65ZM208,90.79l7.33,15.84,11.79-58.28ZM184.69,49.18l12.13,57.41,7.11-15.78Z" transform="translate(-17.69 -22.77)" fill="#bf455b"/><path d="M305.19,159.72H255.5a1.83,1.83,0,0,1-1.83-1.83V34.79A1.83,1.83,0,0,1,255.5,33H309a1.83,1.83,0,0,1,.81,3.47L257.33,62.52v70.3L306,156.24a1.83,1.83,0,0,1-.79,3.48Zm-47.86-3.66h39.83l-39.83-19.18Zm0-119.43v21.8l43.88-21.8Z" transform="translate(-17.69 -22.77)" fill="#bf455b"/><path d="M280.82,86.63H256A1.83,1.83,0,1,1,256,83h24.84a1.83,1.83,0,0,1,0,3.66Z" transform="translate(-17.69 -22.77)" fill="#bf455b"/><path d="M275.09,89a1,1,0,0,1-1-1V80.34a1,1,0,1,1,2.07,0V88A1,1,0,0,1,275.09,89Z" transform="translate(-17.69 -22.77)" fill="#bf455b"/><path d="M280.82,99.53H256a1.84,1.84,0,0,1,0-3.67h24.84a1.84,1.84,0,0,1,0,3.67Z" transform="translate(-17.69 -22.77)" fill="#bf455b"/><path d="M275.09,101.92a1,1,0,0,1-1-1V93.24a1,1,0,1,1,2.07,0v7.64A1,1,0,0,1,275.09,101.92Z" transform="translate(-17.69 -22.77)" fill="#bf455b"/><path d="M280.82,112.43H256a1.84,1.84,0,0,1,0-3.67h24.84a1.84,1.84,0,0,1,0,3.67Z" transform="translate(-17.69 -22.77)" fill="#bf455b"/><path d="M275.09,114.81a1,1,0,0,1-1-1v-7.64a1,1,0,1,1,2.07,0v7.64A1,1,0,0,1,275.09,114.81Z" transform="translate(-17.69 -22.77)" fill="#bf455b"/><path d="M33.53,312.15a1.83,1.83,0,0,1-1.83-1.83v-121a1.83,1.83,0,0,1,3.52-.71L82.65,301V188.67a1.84,1.84,0,0,1,3.67,0V310a1.83,1.83,0,0,1-3.52.71L35.36,198.35v112A1.83,1.83,0,0,1,33.53,312.15Z" transform="translate(-17.69 -22.77)" fill="#bf455b"/><path d="M33.53,189.3" transform="translate(-17.69 -22.77)" fill="#bf455b" stroke="#fff" stroke-linecap="round" stroke-linejoin="round" stroke-width="23"/><path d="M33.69,300.68a16,16,0,1,1,16-16A16,16,0,0,1,33.69,300.68Zm0-28.34A12.34,12.34,0,1,0,46,284.68,12.36,12.36,0,0,0,33.69,272.34Z" transform="translate(-17.69 -22.77)" fill="#bf455b"/><path d="M39.26,285.24H27.48a1,1,0,0,1,0-2.07H39.26a1,1,0,1,1,0,2.07Z" transform="translate(-17.69 -22.77)" fill="#bf455b"/><path d="M36.72,279.82h-7a1,1,0,0,1,0-2.07h7a1,1,0,0,1,0,2.07Z" transform="translate(-17.69 -22.77)" fill="#bf455b"/><path d="M135.12,221.55h-7a1,1,0,0,1,0-2.07h7a1,1,0,0,1,0,2.07Z" transform="translate(-17.69 -22.77)" fill="#bf455b"/><path d="M36.72,290h-7a1,1,0,0,1,0-2.07h7a1,1,0,0,1,0,2.07Z" transform="translate(-17.69 -22.77)" fill="#bf455b"/><path d="M84.48,310.63" transform="translate(-17.69 -22.77)" fill="#bf455b" stroke="#fff" stroke-linecap="round" stroke-linejoin="round" stroke-width="23"/><path d="M107.1,312.47a2.46,2.46,0,0,1-.37,0,1.82,1.82,0,0,1-1.43-2.15l24.52-122.45a1.83,1.83,0,0,1,1.79-1.47h0a1.82,1.82,0,0,1,1.79,1.47l24.84,122.28a1.83,1.83,0,0,1-3.59.73l-23-113.39L108.89,311A1.84,1.84,0,0,1,107.1,312.47Z" transform="translate(-17.69 -22.77)" fill="#bf455b"/><path d="M131.93,312.15a1.83,1.83,0,0,1-1.83-1.83V214.14a1.83,1.83,0,1,1,3.66,0v96.18A1.83,1.83,0,0,1,131.93,312.15Z" transform="translate(-17.69 -22.77)" fill="#bf455b"/><path d="M148.57,275.84H115.69a1.83,1.83,0,0,1,0-3.66h32.88a1.83,1.83,0,0,1,0,3.66Z" transform="translate(-17.69 -22.77)" fill="#bf455b"/><path d="M149.84,281.89H114.6a1.83,1.83,0,0,1,0-3.66h35.24a1.83,1.83,0,0,1,0,3.66Z" transform="translate(-17.69 -22.77)" fill="#bf455b"/><path d="M151.42,288.9H113.06a1.83,1.83,0,0,1,0-3.66h38.36a1.83,1.83,0,0,1,0,3.66Z" transform="translate(-17.69 -22.77)" fill="#bf455b"/><path d="M182.45,312.73a1.83,1.83,0,0,1-1.83-1.84v-.16a1.85,1.85,0,0,0,0-1.59V309a1.85,1.85,0,0,0,0-1.59v-.16a1.76,1.76,0,0,1,.18-.79,1.84,1.84,0,0,1-.18-.8v-.16a1.85,1.85,0,0,0,0-1.59v-.16a1.85,1.85,0,0,0,0-1.59V302a1.85,1.85,0,0,0,0-1.59v-.16a1.87,1.87,0,0,0,0-1.6v-.16a1.85,1.85,0,0,0,0-1.59v-.16a1.85,1.85,0,0,0,0-1.59V295a1.76,1.76,0,0,1,.18-.79,1.84,1.84,0,0,1-.18-.8v-.16a1.85,1.85,0,0,0,0-1.59v-.16a1.85,1.85,0,0,0,0-1.59v-.16a1.87,1.87,0,0,0,0-1.6V288a1.87,1.87,0,0,0,0-1.6v-.16a1.85,1.85,0,0,0,0-1.59v-.16a1.85,1.85,0,0,0,0-1.59v-.16a1.84,1.84,0,0,1,.18-.8,1.76,1.76,0,0,1-.18-.79V281a1.85,1.85,0,0,0,0-1.59v-.16a1.85,1.85,0,0,0,0-1.59v-.16a1.87,1.87,0,0,0,0-1.6v-.16a1.85,1.85,0,0,0,0-1.59V274a1.85,1.85,0,0,0,0-1.59v-.16a1.76,1.76,0,0,1,.18-.79,1.8,1.8,0,0,1-.18-.8v-.16a1.8,1.8,0,0,1,.18-.8,1.76,1.76,0,0,1-.18-.79v-.16a1.85,1.85,0,0,0,0-1.59V267a1.85,1.85,0,0,0,0-1.59v-.16a1.87,1.87,0,0,0,0-1.6v-.16a1.85,1.85,0,0,0,0-1.59v-.16a1.85,1.85,0,0,0,0-1.59v-.16a1.76,1.76,0,0,1,.18-.79,1.84,1.84,0,0,1-.18-.8v-.16a1.85,1.85,0,0,0,0-1.59v-.16a1.85,1.85,0,0,0,0-1.59v-.16a1.87,1.87,0,0,0,0-1.6v-.15a1.87,1.87,0,0,0,0-1.6v-.16a1.85,1.85,0,0,0,0-1.59v-.16a1.85,1.85,0,0,0,0-1.59v-.16a1.84,1.84,0,0,1,.18-.8,1.76,1.76,0,0,1-.18-.79v-.16a1.85,1.85,0,0,0,0-1.59v-.16a1.85,1.85,0,0,0,0-1.59v-.16a1.87,1.87,0,0,0,0-1.6v-.15a1.87,1.87,0,0,0,0-1.6v-.16a1.85,1.85,0,0,0,0-1.59v-.16a1.85,1.85,0,0,0,0-1.59v-.16a1.84,1.84,0,0,1,.18-.8,1.76,1.76,0,0,1-.18-.79v-.16a1.85,1.85,0,0,0,0-1.59v-.16a1.85,1.85,0,0,0,0-1.59v-.16a1.87,1.87,0,0,0,0-1.6v-.16a1.85,1.85,0,0,0,0-1.59v-.16a1.85,1.85,0,0,0,0-1.59v-.16a1.76,1.76,0,0,1,.18-.79,1.84,1.84,0,0,1-.18-.8v-.16a1.85,1.85,0,0,0,0-1.59v-.16a1.85,1.85,0,0,0,0-1.59v-.16a1.87,1.87,0,0,0,0-1.6v-.15a1.87,1.87,0,0,0,0-1.6v-.16a1.85,1.85,0,0,0,0-1.59v-.16a1.85,1.85,0,0,0,0-1.59v-.16a1.84,1.84,0,0,1,.18-.8,1.76,1.76,0,0,1-.18-.79v-.16a1.85,1.85,0,0,0,0-1.59v-.16a1.85,1.85,0,0,0,0-1.59v-.16a1.87,1.87,0,0,0,0-1.6v-.15a1.87,1.87,0,0,0,0-1.6v-.16a1.85,1.85,0,0,0,0-1.59v-.16a1.85,1.85,0,0,0,0-1.59v-.16a1.84,1.84,0,0,1,.18-.8,1.76,1.76,0,0,1-.18-.79v-.16a1.85,1.85,0,0,0,0-1.59v-.16a1.85,1.85,0,0,0,0-1.59v-.16a1.87,1.87,0,0,0,0-1.6v-.16a1.85,1.85,0,0,0,0-1.59v-.16a1.85,1.85,0,0,0,0-1.59v-.16a1.76,1.76,0,0,1,.18-.79,1.84,1.84,0,0,1-.18-.8v-.16a1.83,1.83,0,0,1,3.66,0v.16a2,2,0,0,1-.18.8,1.91,1.91,0,0,1,.18.79V190a1.85,1.85,0,0,0,0,1.59v.16a1.85,1.85,0,0,0,0,1.59v.16a1.87,1.87,0,0,0,0,1.6v.16a1.85,1.85,0,0,0,0,1.59v.16a1.85,1.85,0,0,0,0,1.59v.16a1.91,1.91,0,0,1-.18.79,2,2,0,0,1,.18.8v.16a1.85,1.85,0,0,0,0,1.59v.16a1.85,1.85,0,0,0,0,1.59v.16a1.87,1.87,0,0,0,0,1.6v.15a1.87,1.87,0,0,0,0,1.6v.16a1.85,1.85,0,0,0,0,1.59v.16a1.85,1.85,0,0,0,0,1.59v.16a1.91,1.91,0,0,1-.18.79,2,2,0,0,1,.18.8v.16a1.85,1.85,0,0,0,0,1.59v.16a1.85,1.85,0,0,0,0,1.59v.16a1.87,1.87,0,0,0,0,1.6v.15a1.87,1.87,0,0,0,0,1.6v.16a1.85,1.85,0,0,0,0,1.59v.16a1.85,1.85,0,0,0,0,1.59v.16a2,2,0,0,1-.18.8,1.91,1.91,0,0,1,.18.79v.16a1.85,1.85,0,0,0,0,1.59v.16a1.85,1.85,0,0,0,0,1.59v.16a1.87,1.87,0,0,0,0,1.6v.16a1.85,1.85,0,0,0,0,1.59v.16a1.85,1.85,0,0,0,0,1.59v.16a1.91,1.91,0,0,1-.18.79,2,2,0,0,1,.18.8v.16a1.85,1.85,0,0,0,0,1.59v.16a1.85,1.85,0,0,0,0,1.59v.16a1.87,1.87,0,0,0,0,1.6v.15a1.87,1.87,0,0,0,0,1.6v.16a1.85,1.85,0,0,0,0,1.59v.16a1.85,1.85,0,0,0,0,1.59v.16a1.91,1.91,0,0,1-.18.79,2,2,0,0,1,.18.8v.16a1.85,1.85,0,0,0,0,1.59v.16a1.85,1.85,0,0,0,0,1.59v.16a1.87,1.87,0,0,0,0,1.6v.15a1.87,1.87,0,0,0,0,1.6v.16a1.85,1.85,0,0,0,0,1.59v.16a1.85,1.85,0,0,0,0,1.59v.16a2,2,0,0,1-.18.8,1.91,1.91,0,0,1,.18.79v.16a1.85,1.85,0,0,0,0,1.59v.16a1.85,1.85,0,0,0,0,1.59v.16a1.87,1.87,0,0,0,0,1.6v.16a1.85,1.85,0,0,0,0,1.59v.16a1.85,1.85,0,0,0,0,1.59v.16a1.91,1.91,0,0,1-.18.79,2,2,0,0,1,.18.8v.16a2,2,0,0,1-.18.8,1.91,1.91,0,0,1,.18.79v.16a1.85,1.85,0,0,0,0,1.59v.16a1.85,1.85,0,0,0,0,1.59v.16a1.87,1.87,0,0,0,0,1.6v.16a1.85,1.85,0,0,0,0,1.59v.16a1.85,1.85,0,0,0,0,1.59v.16a1.91,1.91,0,0,1-.18.79,2,2,0,0,1,.18.8v.16a1.85,1.85,0,0,0,0,1.59v.16a1.85,1.85,0,0,0,0,1.59v.16a1.87,1.87,0,0,0,0,1.6v.15a1.87,1.87,0,0,0,0,1.6v.16a1.85,1.85,0,0,0,0,1.59v.16a1.85,1.85,0,0,0,0,1.59v.16a2,2,0,0,1-.18.8,1.91,1.91,0,0,1,.18.79v.16a1.85,1.85,0,0,0,0,1.59v.16a1.85,1.85,0,0,0,0,1.59v.16a1.87,1.87,0,0,0,0,1.6v.16a1.85,1.85,0,0,0,0,1.59v.16a1.85,1.85,0,0,0,0,1.59v.16a1.85,1.85,0,0,0,0,1.59v.16a2,2,0,0,1-.18.8,1.91,1.91,0,0,1,.18.79v.16a1.85,1.85,0,0,0,0,1.59v.16a1.85,1.85,0,0,0,0,1.59v.16A1.83,1.83,0,0,1,182.45,312.73Z" transform="translate(-17.69 -22.77)" fill="#bf455b"/><path d="M195.27,264.7a2,2,0,0,1-.82-.19h-.25a1.82,1.82,0,0,1-.74-.21,2,2,0,0,1-.77.15h-.15a1.7,1.7,0,0,1-.78-.19,1.86,1.86,0,0,1-.79.17h-.16a1.91,1.91,0,0,1-.79-.19,1.87,1.87,0,0,1-.79.18h-.15a1.85,1.85,0,0,0-1.59,0h-.16v-.93a1.81,1.81,0,0,1-1.59.94h-.16a1.9,1.9,0,0,1-.79-.17,1.77,1.77,0,0,1-.79.19h-.16a1.85,1.85,0,0,0-1.59,0h-.16a1.94,1.94,0,0,1-.8-.17,1.78,1.78,0,0,1-.8.19h-.15a1.8,1.8,0,0,1-.8-.17,1.92,1.92,0,0,1-.79.2h-.16a1.92,1.92,0,0,0-1.6,0h-.15a1.94,1.94,0,0,1-.8-.17,1.92,1.92,0,0,1-.79.2h-.16a1.76,1.76,0,0,1-.8-.16,1.93,1.93,0,0,1-.8.2h-.15a1.91,1.91,0,0,1-.8-.16,1.93,1.93,0,0,1-.8.2h-.16a1.82,1.82,0,0,1-.8-.16,1.85,1.85,0,0,1-.79.2h-.21a2.88,2.88,0,0,1-.42-4.14l.11-.11a1.9,1.9,0,0,1,.7-.43,1.86,1.86,0,0,1,.43-.69l.12-.11a1.89,1.89,0,0,0,1.13-1.13L172,258a1.86,1.86,0,0,1,.69-.43,1.89,1.89,0,0,1,.44-.69l.11-.11a1.89,1.89,0,0,1,.69-.44,2,2,0,0,1,.44-.69l.11-.11a1.9,1.9,0,0,1,.7-.43,1.74,1.74,0,0,1,.43-.69l.12-.11a1.74,1.74,0,0,1,.69-.43,1.8,1.8,0,0,1,.44-.7l.11-.11a1.86,1.86,0,0,1,.69-.43,1.89,1.89,0,0,1,.44-.69l.11-.11a1.74,1.74,0,0,1,.69-.43,1.93,1.93,0,0,1,.44-.7l.11-.11a2,2,0,0,1,.55-.37,2.22,2.22,0,0,1-.2-.41,1.74,1.74,0,0,1-.69-.43l-.12-.11a1.86,1.86,0,0,1-.43-.69,1.9,1.9,0,0,1-.7-.43l-.11-.12a1.67,1.67,0,0,1-.43-.69,1.71,1.71,0,0,1-.7-.43l-.11-.11a1.89,1.89,0,0,1-.44-.69,1.86,1.86,0,0,1-.69-.43l-.11-.12a1.81,1.81,0,0,1-.44-.69,1.74,1.74,0,0,1-.69-.43l-.12-.11a1.8,1.8,0,0,0-1.12-1.12l-.12-.12a1.67,1.67,0,0,1-.43-.69,1.78,1.78,0,0,1-.7-.43l-.11-.11a1.89,1.89,0,0,1-.44-.69,1.86,1.86,0,0,1-.69-.43l-.11-.11a2,2,0,0,1-.44-.69,1.89,1.89,0,0,1-.69-.44l-.11-.11a1.81,1.81,0,0,1-.53-1.56,2.32,2.32,0,0,1-.05-.38,1.85,1.85,0,0,1,1.79-1.88h.16a1.78,1.78,0,0,0,1.6,0h.16a1.82,1.82,0,0,0,1.6,0h.16a2,2,0,0,1,.8.17,1.85,1.85,0,0,1,.79-.2h.16a1.77,1.77,0,0,1,.8.17,1.79,1.79,0,0,1,.8-.2h.16a1.67,1.67,0,0,1,.8.17,1.92,1.92,0,0,1,.79-.2h.17a1.63,1.63,0,0,1,.79.17,1.93,1.93,0,0,1,.8-.2h.16a1.91,1.91,0,0,1,.8.17,1.78,1.78,0,0,1,.8-.19h.15a1.84,1.84,0,0,1,.81.17,1.78,1.78,0,0,1,.8-.19h.15a1.84,1.84,0,0,1,.81.17,1.76,1.76,0,0,1,.79-.18h.16a2.08,2.08,0,0,1,.8.18,1.84,1.84,0,0,1,.8-.18H188a1.84,1.84,0,0,1,.8.18,1.76,1.76,0,0,1,.79-.18h.17a1.78,1.78,0,0,1,.8.19,1.8,1.8,0,0,1,.8-.18h.16a1.94,1.94,0,0,1,.81.2,1.88,1.88,0,0,1,.82-.16h.17a2,2,0,0,1,.83.24,1.74,1.74,0,0,1,.91-.12l.23,0a1.83,1.83,0,0,1,.9,3.2,1.84,1.84,0,0,1-.5.9l-.11.11a1.93,1.93,0,0,1-.7.44,1.81,1.81,0,0,1-.43.69l-.12.11a1.8,1.8,0,0,0-1.12,1.12l-.12.11a1.74,1.74,0,0,1-.69.43,1.93,1.93,0,0,1-.44.7l-.11.11a1.86,1.86,0,0,1-.69.43,1.89,1.89,0,0,1-.44.69l-.11.11a1.74,1.74,0,0,1-.69.43,1.81,1.81,0,0,1-.44.69l-.11.12a1.9,1.9,0,0,1-.7.43,1.77,1.77,0,0,1-.44.69l-.11.11a1.74,1.74,0,0,1-.69.43,1.7,1.7,0,0,1-.44.69l-.11.12a1.86,1.86,0,0,1-.69.43,1.89,1.89,0,0,1-.44.69l-.11.11a1.74,1.74,0,0,1-.69.43l0,.06a1.72,1.72,0,0,1,.37.28l.12.12a1.78,1.78,0,0,0,1.13,1.12l.11.11a1.74,1.74,0,0,1,.43.69,1.9,1.9,0,0,1,.7.43l.11.12a1.81,1.81,0,0,1,.44.69,1.74,1.74,0,0,1,.69.43l.11.11a1.77,1.77,0,0,1,.44.69,1.86,1.86,0,0,1,.69.43l.12.12a1.78,1.78,0,0,1,.43.69,1.74,1.74,0,0,1,.69.43l.12.11a1.74,1.74,0,0,1,.43.69,1.9,1.9,0,0,1,.7.43l.11.11a2,2,0,0,1,.44.69,1.89,1.89,0,0,1,.69.44l.11.11a1.89,1.89,0,0,1,.44.69,1.86,1.86,0,0,1,.69.43l.11.11a1.89,1.89,0,0,0,1.13,1.13l.12.11a1.83,1.83,0,0,1,0,2.59A1.79,1.79,0,0,1,195.27,264.7Zm-8-3v0h0v-.93h.17a1.8,1.8,0,0,1,.8.18,1.77,1.77,0,0,1,.8-.18h.16a1.77,1.77,0,0,1,.8.18,1.85,1.85,0,0,1,.58-.16,2.06,2.06,0,0,1-.37-.29l-.12-.11a1.8,1.8,0,0,0-1.12-1.12l-.12-.11a1.9,1.9,0,0,1-.43-.7,1.78,1.78,0,0,1-.7-.43l-.11-.11a1.89,1.89,0,0,1-.44-.69,1.86,1.86,0,0,1-.69-.43l-.11-.11A2,2,0,0,1,186,256a1.89,1.89,0,0,1-.69-.44l-.11-.11a1.77,1.77,0,0,1-.44-.69,1.86,1.86,0,0,1-.69-.43l-.12-.11a1.94,1.94,0,0,1-.43-.69,1.8,1.8,0,0,1-.7-.44l-.11-.11a2.06,2.06,0,0,1-.29-.37,1.67,1.67,0,0,1-.4.59l-.11.11a1.77,1.77,0,0,1-.69.44,1.89,1.89,0,0,1-.44.69l-.11.11a1.86,1.86,0,0,1-.69.43,1.89,1.89,0,0,1-.44.69l-.11.11a1.93,1.93,0,0,1-.7.44,1.74,1.74,0,0,1-.43.69l-.12.11a1.86,1.86,0,0,1-.69.43,1.77,1.77,0,0,1-.44.69l-.11.11a1.74,1.74,0,0,1-.69.43,1.93,1.93,0,0,1-.44.7l-.11.11a1.86,1.86,0,0,1-.69.43,1.89,1.89,0,0,1-.44.69l-.11.11a2.1,2.1,0,0,1-.46.34,1.25,1.25,0,0,1,.25.09,1.85,1.85,0,0,1,.79-.2h.16a1.76,1.76,0,0,1,.8.16,1.92,1.92,0,0,1,.79-.2h.17a1.94,1.94,0,0,1,.8.17,1.92,1.92,0,0,1,.79-.2h.16a1.65,1.65,0,0,1,.8.17,1.93,1.93,0,0,1,.8-.2h.16a1.8,1.8,0,0,0,1.59,0h.16a2,2,0,0,1,.81.17,1.77,1.77,0,0,1,.79-.19H184a1.77,1.77,0,0,1,.8.17,2,2,0,0,1,.8-.19h.18A1.84,1.84,0,0,1,187.32,261.66Zm-5.23-14.22a2.25,2.25,0,0,1,.46.24l0,0A1.89,1.89,0,0,1,183,247l.11-.11a1.74,1.74,0,0,1,.69-.43,1.89,1.89,0,0,1,.44-.69l.11-.12a1.94,1.94,0,0,1,.69-.43,1.89,1.89,0,0,1,.44-.69l.12-.11a1.8,1.8,0,0,0,1.12-1.12l.12-.11A1.89,1.89,0,0,0,188,242l.11-.11a1.86,1.86,0,0,1,.69-.43,1.89,1.89,0,0,1,.44-.69l.11-.11a1.89,1.89,0,0,0,1.13-1.13l.11-.11a1.9,1.9,0,0,1,.7-.43.25.25,0,0,1,0-.07h0a1.91,1.91,0,0,1-.79-.18,1.82,1.82,0,0,1-.78.17h-.16a1.92,1.92,0,0,1-.8-.18,1.87,1.87,0,0,1-.79.18h-.16a1.76,1.76,0,0,1-.79-.18,1.91,1.91,0,0,1-.79.19h-.17a1.91,1.91,0,0,1-.79-.18,1.74,1.74,0,0,1-.79.19h-.16a1.77,1.77,0,0,1-.8-.17,1.7,1.7,0,0,1-.78.19h-.17a1.8,1.8,0,0,1-.8-.17,1.74,1.74,0,0,1-.79.19h-.16a1.82,1.82,0,0,1-.8-.16,1.77,1.77,0,0,1-.79.19h-.16a1.7,1.7,0,0,1-.8-.17,1.85,1.85,0,0,1-.79.2h-.16a1.7,1.7,0,0,1-.8-.17,1.66,1.66,0,0,1-.79.2h-.16a1.82,1.82,0,0,1-.8-.16,1.92,1.92,0,0,1-.79.2h0l.12.1.11.11a1.84,1.84,0,0,1,.44.69,1.89,1.89,0,0,1,.69.44l.12.11a1.86,1.86,0,0,1,.43.69,1.9,1.9,0,0,1,.7.43l.11.11a2,2,0,0,1,.44.69,1.89,1.89,0,0,1,.69.44l.11.11a1.89,1.89,0,0,1,.44.69,1.86,1.86,0,0,1,.69.43l.11.11a1.89,1.89,0,0,0,1.13,1.13l.12.11a1.86,1.86,0,0,1,.43.69,1.9,1.9,0,0,1,.7.43l.11.11A1.89,1.89,0,0,1,182.09,247.44Z" transform="translate(-17.69 -22.77)" fill="#bf455b"/><path d="M260.27,311.83h-.16a1.91,1.91,0,0,1-.79-.18,2,2,0,0,1-.8.18h-.16a1.85,1.85,0,0,0-1.59,0h-.16a1.85,1.85,0,0,0-1.59,0h-.16a1.87,1.87,0,0,0-1.6,0h-.15a1.87,1.87,0,0,0-1.6,0h-.16a1.85,1.85,0,0,0-1.59,0h-.16a1.85,1.85,0,0,0-1.59,0h-.16a2,2,0,0,1-.8-.18,1.91,1.91,0,0,1-.79.18h-.16a1.85,1.85,0,0,0-1.59,0h-.16a1.85,1.85,0,0,0-1.59,0h-.16a1.87,1.87,0,0,0-1.6,0h-.16a1.85,1.85,0,0,0-1.59,0h-.16a1.85,1.85,0,0,0-1.59,0h-.16a1.91,1.91,0,0,1-.79-.18,2,2,0,0,1-.8.18h-.16a1.85,1.85,0,0,0-1.59,0h-.16a1.85,1.85,0,0,0-1.59,0h-.16a1.85,1.85,0,0,0-1.59,0h-.16a1.87,1.87,0,0,0-1.6,0h-.16a1.85,1.85,0,0,0-1.59,0h-.16a1.85,1.85,0,0,0-1.59,0h-.16a1.91,1.91,0,0,1-.79-.18,2,2,0,0,1-.8.18h-.16a1.85,1.85,0,0,0-1.59,0h-.16a1.85,1.85,0,0,0-1.59,0h-.16a1.87,1.87,0,0,0-1.6,0h-.15a1.87,1.87,0,0,0-1.6,0h-.16a1.86,1.86,0,0,1-.9-.24,1.83,1.83,0,0,1-2.36-1.75v-.16a1.85,1.85,0,0,0,0-1.59v-.16a1.85,1.85,0,0,0,0-1.59v-.16a1.87,1.87,0,0,0,0-1.6v-.15a1.87,1.87,0,0,0,0-1.6v-.16a1.85,1.85,0,0,0,0-1.59v-.16a1.85,1.85,0,0,0,0-1.59v-.16a2,2,0,0,1,.18-.8,1.91,1.91,0,0,1-.18-.79v-.16a1.85,1.85,0,0,0,0-1.59v-.16a1.85,1.85,0,0,0,0-1.59v-.16a1.87,1.87,0,0,0,0-1.6v-.16a1.85,1.85,0,0,0,0-1.59v-.16a1.85,1.85,0,0,0,0-1.59v-.16a1.91,1.91,0,0,1,.18-.79,2,2,0,0,1-.18-.8v-.16a1.85,1.85,0,0,0,0-1.59v-.16a1.85,1.85,0,0,0,0-1.59v-.16a1.87,1.87,0,0,0,0-1.6v-.15a1.87,1.87,0,0,0,0-1.6v-.16a1.85,1.85,0,0,0,0-1.59v-.16a1.85,1.85,0,0,0,0-1.59v-.16a1.91,1.91,0,0,1,.18-.79,2,2,0,0,1-.18-.8v-.16a1.85,1.85,0,0,0,0-1.59v-.16a1.85,1.85,0,0,0,0-1.59v-.16a1.87,1.87,0,0,0,0-1.6v-.15a1.87,1.87,0,0,0,0-1.6v-.16a1.85,1.85,0,0,0,0-1.59v-.16a1.85,1.85,0,0,0,0-1.59v-.16a2,2,0,0,1,.18-.8,1.91,1.91,0,0,1-.18-.79v-.16a1.85,1.85,0,0,0,0-1.59v-.16a1.85,1.85,0,0,0,0-1.59v-.16a1.87,1.87,0,0,0,0-1.6v-.16a1.85,1.85,0,0,0,0-1.59v-.16a1.85,1.85,0,0,0,0-1.59v-.16a1.91,1.91,0,0,1,.18-.79,2,2,0,0,1-.18-.8v-.16a1.85,1.85,0,0,0,0-1.59v-.16a1.85,1.85,0,0,0,0-1.59v-.16a1.85,1.85,0,0,0,0-1.59v-.16a1.87,1.87,0,0,0,0-1.6v-.16a1.85,1.85,0,0,0,0-1.59v-.16a1.85,1.85,0,0,0,0-1.59v-.16a1.91,1.91,0,0,1,.18-.79,2,2,0,0,1-.18-.8v-.16a1.85,1.85,0,0,0,0-1.59v-.16a1.85,1.85,0,0,0,0-1.59v-.16a1.87,1.87,0,0,0,0-1.6v-.15a1.87,1.87,0,0,0,0-1.6v-.16a1.85,1.85,0,0,0,0-1.59v-.16a1.85,1.85,0,0,0,0-1.59v-.16a2,2,0,0,1,.18-.8,1.91,1.91,0,0,1-.18-.79v-.16a1.85,1.85,0,0,0,0-1.59v-.16a1.85,1.85,0,0,0,0-1.59v-.16a1.87,1.87,0,0,0,0-1.6v-.16a1.85,1.85,0,0,0,0-1.59v-.16a1.85,1.85,0,0,0,0-1.59v-.16a1.91,1.91,0,0,1,.18-.79,2,2,0,0,1-.18-.8v-.16a2,2,0,0,1,.18-.8,1.91,1.91,0,0,1-.18-.79v-.16a1.85,1.85,0,0,0,0-1.59v-.16a1.85,1.85,0,0,0,0-1.59v-.16a1.87,1.87,0,0,0,0-1.6v-.16a1.85,1.85,0,0,0,0-1.59v-.16a1.85,1.85,0,0,0,0-1.59v-.16a1.91,1.91,0,0,1,.18-.79,2,2,0,0,1-.18-.8v-.16a1.85,1.85,0,0,0,0-1.59v-.16a1.85,1.85,0,0,0,0-1.59v-.16a1.87,1.87,0,0,0,0-1.6v-.15a1.87,1.87,0,0,0,0-1.6v-.16a1.85,1.85,0,0,0,0-1.59v-.16a1.85,1.85,0,0,0,0-1.59v-.16a2,2,0,0,1,.18-.8,1.91,1.91,0,0,1-.18-.79v-.16a1.85,1.85,0,0,0,0-1.59v-.16a1.85,1.85,0,0,0,0-1.59v-.16a1.83,1.83,0,0,1,3.66,0V189a1.85,1.85,0,0,0,0,1.59v.16a1.85,1.85,0,0,0,0,1.59v.16a1.76,1.76,0,0,1-.18.79,1.84,1.84,0,0,1,.18.8v.16a1.85,1.85,0,0,0,0,1.59V196a1.85,1.85,0,0,0,0,1.59v.16a1.87,1.87,0,0,0,0,1.6v.15a1.87,1.87,0,0,0,0,1.6v.16a1.85,1.85,0,0,0,0,1.59V203a1.85,1.85,0,0,0,0,1.59v.16a1.84,1.84,0,0,1-.18.8,1.76,1.76,0,0,1,.18.79v.16a1.85,1.85,0,0,0,0,1.59v.16a1.85,1.85,0,0,0,0,1.59V210a1.87,1.87,0,0,0,0,1.6v.16a1.85,1.85,0,0,0,0,1.59v.16a1.85,1.85,0,0,0,0,1.59v.16a1.76,1.76,0,0,1-.18.79,1.8,1.8,0,0,1,.18.8V217a1.8,1.8,0,0,1-.18.8,1.76,1.76,0,0,1,.18.79v.16a1.85,1.85,0,0,0,0,1.59v.16a1.85,1.85,0,0,0,0,1.59v.16a1.87,1.87,0,0,0,0,1.6V224a1.85,1.85,0,0,0,0,1.59v.16a1.85,1.85,0,0,0,0,1.59v.16a1.76,1.76,0,0,1-.18.79,1.84,1.84,0,0,1,.18.8v.16a1.85,1.85,0,0,0,0,1.59V231a1.85,1.85,0,0,0,0,1.59v.16a1.87,1.87,0,0,0,0,1.6v.15a1.87,1.87,0,0,0,0,1.6v.16a1.85,1.85,0,0,0,0,1.59V238a1.85,1.85,0,0,0,0,1.59v.16a1.84,1.84,0,0,1-.18.8,1.76,1.76,0,0,1,.18.79v.16a1.85,1.85,0,0,0,0,1.59v.16a1.85,1.85,0,0,0,0,1.59V245a1.87,1.87,0,0,0,0,1.6v.16a1.85,1.85,0,0,0,0,1.59v.16a1.85,1.85,0,0,0,0,1.59v.16a1.85,1.85,0,0,0,0,1.59V252a1.84,1.84,0,0,1-.18.8,1.76,1.76,0,0,1,.18.79v.16a1.85,1.85,0,0,0,0,1.59v.16a1.85,1.85,0,0,0,0,1.59v.16a1.87,1.87,0,0,0,0,1.6v.16a1.85,1.85,0,0,0,0,1.59v.16a1.85,1.85,0,0,0,0,1.59v.16a1.76,1.76,0,0,1-.18.79,1.84,1.84,0,0,1,.18.8v.16a1.85,1.85,0,0,0,0,1.59v.16a1.85,1.85,0,0,0,0,1.59v.16a1.87,1.87,0,0,0,0,1.6v.15a1.87,1.87,0,0,0,0,1.6v.16a1.85,1.85,0,0,0,0,1.59v.16a1.85,1.85,0,0,0,0,1.59v.16a1.84,1.84,0,0,1-.18.8,1.76,1.76,0,0,1,.18.79v.16a1.85,1.85,0,0,0,0,1.59v.16a1.85,1.85,0,0,0,0,1.59v.16a1.87,1.87,0,0,0,0,1.6v.15a1.87,1.87,0,0,0,0,1.6v.16a1.85,1.85,0,0,0,0,1.59v.16a1.85,1.85,0,0,0,0,1.59v.16a1.84,1.84,0,0,1-.18.8,1.76,1.76,0,0,1,.18.79v.16a1.85,1.85,0,0,0,0,1.59v.16a1.85,1.85,0,0,0,0,1.59v.16a1.87,1.87,0,0,0,0,1.6v.16a1.85,1.85,0,0,0,0,1.59v.16a1.85,1.85,0,0,0,0,1.59v.16a1.76,1.76,0,0,1-.18.79,1.84,1.84,0,0,1,.18.8v.16a1.85,1.85,0,0,0,0,1.59v.16a1.85,1.85,0,0,0,0,1.59v.16a1.87,1.87,0,0,0,0,1.6v.15a1.87,1.87,0,0,0,0,1.6v.16a1.85,1.85,0,0,0,0,1.59v.25a1.74,1.74,0,0,1,.56.17,1.77,1.77,0,0,1,.8-.18h.15a1.87,1.87,0,0,0,1.6,0H220a1.85,1.85,0,0,0,1.59,0h.16a1.85,1.85,0,0,0,1.59,0h.16a1.84,1.84,0,0,1,.8.18,1.76,1.76,0,0,1,.79-.18h.16a1.85,1.85,0,0,0,1.59,0H227a1.85,1.85,0,0,0,1.59,0h.16a1.87,1.87,0,0,0,1.6,0h.16a1.85,1.85,0,0,0,1.59,0h.16a1.85,1.85,0,0,0,1.59,0H234a1.85,1.85,0,0,0,1.59,0h.16a1.84,1.84,0,0,1,.8.18,1.76,1.76,0,0,1,.79-.18h.16a1.85,1.85,0,0,0,1.59,0h.16a1.85,1.85,0,0,0,1.59,0H241a1.87,1.87,0,0,0,1.6,0h.16a1.85,1.85,0,0,0,1.59,0h.16a1.85,1.85,0,0,0,1.59,0h.16a1.76,1.76,0,0,1,.79.18,1.84,1.84,0,0,1,.8-.18H248a1.85,1.85,0,0,0,1.59,0h.16a1.85,1.85,0,0,0,1.59,0h.16a1.87,1.87,0,0,0,1.6,0h.15a1.87,1.87,0,0,0,1.6,0H255a1.85,1.85,0,0,0,1.59,0h.16a1.85,1.85,0,0,0,1.59,0h.16a1.84,1.84,0,0,1,.8.18,1.76,1.76,0,0,1,.79-.18h.16a1.83,1.83,0,1,1,0,3.66Z" transform="translate(-17.69 -22.77)" fill="#bf455b"/><path d="M260.59,305.78h-.16a1.85,1.85,0,0,0-1.59,0h-.16a1.85,1.85,0,0,0-1.59,0h-.16a1.87,1.87,0,0,0-1.6,0h-.15a1.87,1.87,0,0,0-1.6,0h-.16a1.85,1.85,0,0,0-1.59,0h-.16a1.85,1.85,0,0,0-1.59,0h-.16a2,2,0,0,1-.8-.18,1.91,1.91,0,0,1-.79.18h-.16a1.85,1.85,0,0,0-1.59,0h-.16a1.85,1.85,0,0,0-1.59,0h-.16a1.87,1.87,0,0,0-1.6,0h-.16a1.85,1.85,0,0,0-1.59,0h-.16a1.85,1.85,0,0,0-1.59,0h-.16a1.91,1.91,0,0,1-.79-.18,2,2,0,0,1-.8.18h-.16a1.85,1.85,0,0,0-1.59,0h-.16a1.85,1.85,0,0,0-1.59,0h-.16a1.87,1.87,0,0,0-1.6,0h-.15a1.87,1.87,0,0,0-1.6,0h-.16a1.85,1.85,0,0,0-1.59,0h-.16a1.85,1.85,0,0,0-1.59,0h-.16a1.91,1.91,0,0,1-.79-.18,2,2,0,0,1-.8.18h-.16a1.85,1.85,0,0,0-1.59,0h-.16a1.85,1.85,0,0,0-1.59,0h-.16a1.87,1.87,0,0,0-1.6,0h-.15a1.87,1.87,0,0,0-1.6,0h-.16a1.85,1.85,0,0,0-1.59,0h-.16a1.85,1.85,0,0,0-1.59,0h-.16a1.83,1.83,0,0,1,0-3.66h.16a1.85,1.85,0,0,0,1.59,0h.16a1.85,1.85,0,0,0,1.59,0h.16a1.87,1.87,0,0,0,1.6,0h.15a1.87,1.87,0,0,0,1.6,0h.16a1.85,1.85,0,0,0,1.59,0h.16a1.85,1.85,0,0,0,1.59,0h.16a1.84,1.84,0,0,1,.8.18,1.76,1.76,0,0,1,.79-.18h.16a1.85,1.85,0,0,0,1.59,0h.16a1.85,1.85,0,0,0,1.59,0h.16a1.87,1.87,0,0,0,1.6,0h.15a1.87,1.87,0,0,0,1.6,0h.16a1.85,1.85,0,0,0,1.59,0h.16a1.85,1.85,0,0,0,1.59,0h.16a1.84,1.84,0,0,1,.8.18,1.76,1.76,0,0,1,.79-.18h.16a1.85,1.85,0,0,0,1.59,0h.16a1.85,1.85,0,0,0,1.59,0h.16a1.87,1.87,0,0,0,1.6,0h.16a1.85,1.85,0,0,0,1.59,0h.16a1.85,1.85,0,0,0,1.59,0h.16a1.76,1.76,0,0,1,.79.18,1.84,1.84,0,0,1,.8-.18h.16a1.85,1.85,0,0,0,1.59,0h.16a1.85,1.85,0,0,0,1.59,0h.16a1.87,1.87,0,0,0,1.6,0h.15a1.87,1.87,0,0,0,1.6,0h.16a1.85,1.85,0,0,0,1.59,0h.16a1.85,1.85,0,0,0,1.59,0h.16a1.83,1.83,0,1,1,0,3.66Z" transform="translate(-17.69 -22.77)" fill="#bf455b"/><path d="M260.59,299.09h-.16a1.85,1.85,0,0,0-1.59,0h-.16a1.85,1.85,0,0,0-1.59,0h-.16a1.87,1.87,0,0,0-1.6,0h-.15a1.87,1.87,0,0,0-1.6,0h-.16a1.85,1.85,0,0,0-1.59,0h-.16a1.85,1.85,0,0,0-1.59,0h-.16a1.84,1.84,0,0,1-.8-.18,1.76,1.76,0,0,1-.79.18h-.16a1.85,1.85,0,0,0-1.59,0h-.16a1.85,1.85,0,0,0-1.59,0h-.16a1.87,1.87,0,0,0-1.6,0h-.16a1.85,1.85,0,0,0-1.59,0h-.16a1.85,1.85,0,0,0-1.59,0h-.16a1.76,1.76,0,0,1-.79-.18,1.84,1.84,0,0,1-.8.18h-.16a1.85,1.85,0,0,0-1.59,0h-.16a1.85,1.85,0,0,0-1.59,0h-.16a1.87,1.87,0,0,0-1.6,0h-.15a1.87,1.87,0,0,0-1.6,0h-.16a1.85,1.85,0,0,0-1.59,0h-.16a1.85,1.85,0,0,0-1.59,0h-.16a1.76,1.76,0,0,1-.79-.18,1.84,1.84,0,0,1-.8.18h-.16a1.85,1.85,0,0,0-1.59,0h-.16a1.85,1.85,0,0,0-1.59,0h-.16a1.87,1.87,0,0,0-1.6,0h-.15a1.87,1.87,0,0,0-1.6,0h-.16a1.85,1.85,0,0,0-1.59,0h-.16a1.85,1.85,0,0,0-1.59,0h-.16a1.83,1.83,0,0,1,0-3.66h.16a1.85,1.85,0,0,0,1.59,0h.16a1.85,1.85,0,0,0,1.59,0h.16a1.87,1.87,0,0,0,1.6,0h.15a1.87,1.87,0,0,0,1.6,0h.16a1.85,1.85,0,0,0,1.59,0h.16a1.85,1.85,0,0,0,1.59,0h.16a1.84,1.84,0,0,1,.8.18,1.76,1.76,0,0,1,.79-.18h.16a1.85,1.85,0,0,0,1.59,0h.16a1.85,1.85,0,0,0,1.59,0h.16a1.87,1.87,0,0,0,1.6,0h.15a1.87,1.87,0,0,0,1.6,0h.16a1.85,1.85,0,0,0,1.59,0h.16a1.85,1.85,0,0,0,1.59,0h.16a1.84,1.84,0,0,1,.8.18,1.76,1.76,0,0,1,.79-.18h.16a1.85,1.85,0,0,0,1.59,0h.16a1.85,1.85,0,0,0,1.59,0h.16a1.87,1.87,0,0,0,1.6,0h.16a1.85,1.85,0,0,0,1.59,0h.16a1.85,1.85,0,0,0,1.59,0h.16a1.76,1.76,0,0,1,.79.18,1.84,1.84,0,0,1,.8-.18h.16a1.85,1.85,0,0,0,1.59,0h.16a1.85,1.85,0,0,0,1.59,0h.16a1.87,1.87,0,0,0,1.6,0h.15a1.87,1.87,0,0,0,1.6,0h.16a1.85,1.85,0,0,0,1.59,0h.16a1.85,1.85,0,0,0,1.59,0h.16a1.83,1.83,0,1,1,0,3.66Z" transform="translate(-17.69 -22.77)" fill="#bf455b"/><path d="M229.82,290.94a1.82,1.82,0,0,1-.81-.19,1.89,1.89,0,0,1-.95.16l-.19,0a1.84,1.84,0,0,1-.91-.37,1.76,1.76,0,0,1-1,0l-.2-.07a1.77,1.77,0,0,1-.83-.58,1.91,1.91,0,0,1-1-.3l-.17-.11a2,2,0,0,1-.66-.8,1.88,1.88,0,0,1-.87-.54s-.09-.1-.13-.16A3,3,0,0,0,221,286.3l-.09-.17a1.83,1.83,0,0,1-.2-1,1.76,1.76,0,0,1-.52-.82,1.21,1.21,0,0,1,0-.18,1.74,1.74,0,0,1,0-1,1.77,1.77,0,0,1-.36-.92,1.47,1.47,0,0,1,0-.2,2,2,0,0,1,.12-.78l0,0a1.75,1.75,0,0,1,.52-.73,1.81,1.81,0,0,1,.19-.87l.08-.16a1.86,1.86,0,0,1,.61-.69,1.91,1.91,0,0,1,.31-.87l.1-.15a1.83,1.83,0,0,1,.72-.61,1.77,1.77,0,0,1,.45-.84l.13-.14a2.74,2.74,0,0,0,1.48-1.26l.16-.11a1.9,1.9,0,0,1,1-.3,1.77,1.77,0,0,1,.81-.61l.18-.07a1.88,1.88,0,0,1,1-.07,1.74,1.74,0,0,1,.93-.39l.2,0a1.77,1.77,0,0,1,1,.17,1.87,1.87,0,0,1,1-.18l.2,0a1.64,1.64,0,0,1,.89.36,1.84,1.84,0,0,1,1,0l.19.06a2.73,2.73,0,0,0,1.77.71,1.53,1.53,0,0,1,.22.12,1.83,1.83,0,0,1-.85,3.41,1.61,1.61,0,0,1-.33.12l-.13,0a1.73,1.73,0,0,1-.71.06,1.8,1.8,0,0,1-.58.39l-.12.06a1.71,1.71,0,0,1-.61.15,2.23,2.23,0,0,1-.43.44l-.08.06a1.77,1.77,0,0,1-.44.25,1.65,1.65,0,0,1-.18.41.16.16,0,0,1,0,.07,1.45,1.45,0,0,1-.19.29,1.86,1.86,0,0,1,0,.34v.06a1.83,1.83,0,0,1-.21,1,1.74,1.74,0,0,1,.09,1,.17.17,0,0,1,0,.07,1.37,1.37,0,0,1-.08.35,1.77,1.77,0,0,1,.15.31l0,.06a2,2,0,0,1,.13.41,1.75,1.75,0,0,1,.39.28l.09.08a2.12,2.12,0,0,1,.38.47,1.72,1.72,0,0,1,.6.21l.11.06a2.12,2.12,0,0,1,.54.44,2.09,2.09,0,0,1,.69.12l.14.05a1.77,1.77,0,0,1,.61.39,1.81,1.81,0,0,1,.73,0l.13,0a1.83,1.83,0,0,1-.1,3.58,1.75,1.75,0,0,1-.74.42l-.16.05a1.69,1.69,0,0,1-.89,0,1.8,1.8,0,0,1-.81.39l-.17,0a1.74,1.74,0,0,1-.91-.06,1.78,1.78,0,0,1-.88.3h-.29Zm-1.75-3.7h.33l.29.05a1.94,1.94,0,0,1-.29-.21,1,1,0,0,1-.15-.14,1.83,1.83,0,0,1-.55-1,1.93,1.93,0,0,1-.81-.86l-.09-.23a1.77,1.77,0,0,1,0-1.26,1.82,1.82,0,0,1-.27-1.21c0-.08,0-.16,0-.25a1.92,1.92,0,0,1,.19-.54,2.4,2.4,0,0,1-.12-.53c0-.08,0-.17,0-.26a1.78,1.78,0,0,1,.41-1.19,1.8,1.8,0,0,1,.17-1.24l.12-.21a1.84,1.84,0,0,1,.89-.77,1.65,1.65,0,0,1,.18-.41h0a2,2,0,0,1-.54.29l-.11.05a2.13,2.13,0,0,1-.6.12,1.81,1.81,0,0,1-.45.42l-.1.07a1.7,1.7,0,0,1-.58.27,2.12,2.12,0,0,1-.36.54l-.09.09a1.94,1.94,0,0,1-.55.4,1.65,1.65,0,0,1-.28.62l-.07.11a1.87,1.87,0,0,1-.5.51,1.89,1.89,0,0,1-.2.68l-.06.13a1.88,1.88,0,0,1-.46.58v.16a2,2,0,0,1-.06.5,1.69,1.69,0,0,1,.3.6.65.65,0,0,1,0,.13,1.87,1.87,0,0,1,.08.66,1.76,1.76,0,0,1,.4.52l.06.11a1.85,1.85,0,0,1,.19.59,2,2,0,0,1,.48.4l.07.09a1.58,1.58,0,0,1,.32.5,1.89,1.89,0,0,1,.54.25l.09.06a1.93,1.93,0,0,1,.45.4,2.09,2.09,0,0,1,.59.1l.11,0a2.06,2.06,0,0,1,.55.29A2.2,2.2,0,0,1,228.07,287.24Z" transform="translate(-17.69 -22.77)" fill="#bf455b"/><path d="M322.14,311.51H322a1.87,1.87,0,0,0-1.6,0h-.16a1.85,1.85,0,0,0-1.59,0h-.16a1.85,1.85,0,0,0-1.59,0h-.16a1.76,1.76,0,0,1-.79-.18,1.84,1.84,0,0,1-.8.18H315a1.85,1.85,0,0,0-1.59,0h-.16a1.85,1.85,0,0,0-1.59,0h-.16a1.87,1.87,0,0,0-1.6,0h-.15a1.87,1.87,0,0,0-1.6,0H308a1.85,1.85,0,0,0-1.59,0h-.16a1.85,1.85,0,0,0-1.59,0h-.16a1.84,1.84,0,0,1-.8-.18,1.76,1.76,0,0,1-.79.18h-.16a1.85,1.85,0,0,0-1.59,0H301a1.85,1.85,0,0,0-1.59,0h-.16a1.87,1.87,0,0,0-1.6,0h-.16a1.85,1.85,0,0,0-1.59,0h-.16a1.85,1.85,0,0,0-1.59,0H294a1.76,1.76,0,0,1-.79-.18,1.8,1.8,0,0,1-.8.18h-.16a1.8,1.8,0,0,1-.8-.18,1.76,1.76,0,0,1-.79.18h-.16a1.85,1.85,0,0,0-1.59,0h-.16a1.85,1.85,0,0,0-1.59,0H287a1.87,1.87,0,0,0-1.6,0h-.16a1.85,1.85,0,0,0-1.59,0h-.16a1.85,1.85,0,0,0-1.59,0h-.16a1.76,1.76,0,0,1-.79-.18,1.84,1.84,0,0,1-.8.18H280a1.85,1.85,0,0,0-1.59,0h-.16a1.85,1.85,0,0,0-1.59,0h-.16a1.87,1.87,0,0,0-1.6,0h-.15a1.83,1.83,0,0,1-1.84-1.83,1.86,1.86,0,0,1,.31-1,1.91,1.91,0,0,1,.16-1l.06-.14a1.8,1.8,0,0,1,.5-.65,1.74,1.74,0,0,1,.16-.8l.07-.15a1.86,1.86,0,0,1,.49-.65,1.91,1.91,0,0,1,.16-.8l.07-.14a1.8,1.8,0,0,1,.5-.65,1.74,1.74,0,0,1,.16-.8l.06-.15a1.89,1.89,0,0,1,.5-.65,1.76,1.76,0,0,1,.16-.8l.07-.14a1.88,1.88,0,0,0,.66-1.45l.06-.15a1.89,1.89,0,0,1,.5-.65,1.7,1.7,0,0,1,.16-.79l.07-.15a1.67,1.67,0,0,1,.49-.65,1.88,1.88,0,0,1,.16-.8l.07-.14a2,2,0,0,1,.49-.66,1.84,1.84,0,0,1,.17-.79l.06-.15a1.8,1.8,0,0,1,.5-.65,1.74,1.74,0,0,1,.16-.8l.07-.15a2,2,0,0,1,.49-.65,1.92,1.92,0,0,1,.17-.8l.06-.14a1.8,1.8,0,0,1,.5-.65,1.74,1.74,0,0,1,.16-.8l.07-.15a1.75,1.75,0,0,1,.49-.65,1.91,1.91,0,0,1,.16-.8l.07-.14a1.88,1.88,0,0,0,.66-1.45l.06-.14a1.8,1.8,0,0,1,.5-.65,1.74,1.74,0,0,1,.16-.8l.07-.15a1.78,1.78,0,0,1,.49-.65,1.88,1.88,0,0,1,.16-.8l.07-.14a1.8,1.8,0,0,1,.5-.65,1.71,1.71,0,0,1,.16-.8L285,282a1.8,1.8,0,0,1,.5-.65,1.74,1.74,0,0,1,.16-.8l.07-.14a1.89,1.89,0,0,1,.49-.65,1.93,1.93,0,0,1,.17-.81l.06-.14a1.8,1.8,0,0,1,.5-.65,1.74,1.74,0,0,1,.16-.8l.07-.15a1.74,1.74,0,0,1,.49-.64,1.92,1.92,0,0,1,.16-.81l.07-.14a1.88,1.88,0,0,0,.66-1.45l.06-.15a1.85,1.85,0,0,1,.5-.64,1.74,1.74,0,0,1,.16-.8l.07-.15A1.88,1.88,0,0,0,290,271l.06-.14a1.8,1.8,0,0,1,.5-.65,1.74,1.74,0,0,1,.16-.8l.06-.15a1.8,1.8,0,0,1,.5-.65,1.74,1.74,0,0,1,.16-.8l.07-.14a1.88,1.88,0,0,0,.66-1.45l.06-.15a1.8,1.8,0,0,1,.5-.65,1.74,1.74,0,0,1,.16-.8l.07-.14a1.78,1.78,0,0,1,.49-.65,1.88,1.88,0,0,1,.16-.8l.07-.15a1.88,1.88,0,0,0,.66-1.45l.06-.14a1.8,1.8,0,0,1,.5-.65,1.74,1.74,0,0,1,.16-.8l.07-.15a1.88,1.88,0,0,0,.66-1.45l.06-.14a1.8,1.8,0,0,1,.5-.65,1.74,1.74,0,0,1,.16-.8l.07-.15a1.67,1.67,0,0,1,.49-.65,1.88,1.88,0,0,1,.16-.8l.07-.14a1.88,1.88,0,0,0,.66-1.45l.06-.15a1.8,1.8,0,0,1,.5-.65,1.74,1.74,0,0,1,.16-.8l.07-.14a1.78,1.78,0,0,1,.49-.65,1.75,1.75,0,0,1,.17-.8l.06-.15a1.8,1.8,0,0,1,.5-.65,1.74,1.74,0,0,1,.16-.8l.06-.14a1.8,1.8,0,0,1,.5-.65,1.74,1.74,0,0,1,.16-.8l.07-.15a1.88,1.88,0,0,0,.66-1.45l.06-.14a1.8,1.8,0,0,1,.5-.65,1.74,1.74,0,0,1,.16-.8l.07-.15a1.67,1.67,0,0,1,.49-.65,1.88,1.88,0,0,1,.16-.8l.07-.14a1.88,1.88,0,0,0,.66-1.45l.06-.15a1.8,1.8,0,0,1,.5-.65,1.74,1.74,0,0,1,.16-.8l.07-.14a1.88,1.88,0,0,0,.66-1.45l.06-.15a1.8,1.8,0,0,1,.5-.65,1.74,1.74,0,0,1,.16-.8l.07-.14a1.67,1.67,0,0,1,.49-.65,1.88,1.88,0,0,1,.16-.8l.07-.15a1.89,1.89,0,0,1,.49-.65,1.92,1.92,0,0,1,.17-.8l.06-.14a1.8,1.8,0,0,1,.5-.65,1.74,1.74,0,0,1,.16-.8l.07-.15a1.78,1.78,0,0,1,.49-.65,1.91,1.91,0,0,1,.16-.8l.07-.14a1.88,1.88,0,0,0,.66-1.45l.06-.15a1.8,1.8,0,0,1,.5-.65,1.76,1.76,0,0,1,.16-.8l.07-.14a1.88,1.88,0,0,0,.66-1.45l.06-.15a1.8,1.8,0,0,1,.5-.65,1.76,1.76,0,0,1,.16-.8l.07-.14a1.67,1.67,0,0,1,.49-.65,1.88,1.88,0,0,1,.16-.8l.07-.15a1.89,1.89,0,0,1,.49-.65,1.92,1.92,0,0,1,.17-.8l.06-.14a1.8,1.8,0,0,1,.5-.65,1.74,1.74,0,0,1,.16-.8l.07-.15a1.89,1.89,0,0,1,.49-.65,1.92,1.92,0,0,1,.17-.8l.06-.14a1.8,1.8,0,0,1,.5-.65,1.74,1.74,0,0,1,.16-.8l.06-.15a1.8,1.8,0,0,1,.5-.65,1.76,1.76,0,0,1,.16-.8l.07-.14a1.88,1.88,0,0,0,.66-1.45l.06-.15a1.8,1.8,0,0,1,.5-.65,1.76,1.76,0,0,1,.16-.8l.07-.14a1.78,1.78,0,0,1,.49-.65,1.88,1.88,0,0,1,.16-.8l.07-.15a1.89,1.89,0,0,1,.49-.65,1.92,1.92,0,0,1,.17-.8l.06-.14a1.8,1.8,0,0,1,.5-.65,1.74,1.74,0,0,1,.16-.8l.07-.15a1.89,1.89,0,0,1,.49-.65,1.92,1.92,0,0,1,.17-.8l.06-.14a1.8,1.8,0,0,1,.5-.65,1.74,1.74,0,0,1,.16-.8l.07-.15a1.67,1.67,0,0,1,.49-.65,1.91,1.91,0,0,1,.16-.8l.07-.14a1.88,1.88,0,0,0,.66-1.45l.06-.15a1.8,1.8,0,0,1,.5-.65,1.76,1.76,0,0,1,.16-.8l.07-.14a1.89,1.89,0,0,1,.49-.65,1.75,1.75,0,0,1,.17-.8l.06-.15a1.8,1.8,0,0,1,.5-.65,1.76,1.76,0,0,1,.16-.8l.06-.14a1.8,1.8,0,0,1,.5-.65,1.74,1.74,0,0,1,.16-.8l.07-.15a2,2,0,0,1,.49-.65,1.92,1.92,0,0,1,.17-.8l.06-.14a2.09,2.09,0,0,1,.27-.43l-.15-.06a1.92,1.92,0,0,1-.8.18h-.16a1.85,1.85,0,0,0-1.59,0h-.16a1.85,1.85,0,0,0-1.59,0h-.16a1.91,1.91,0,0,1-.79-.18,2,2,0,0,1-.8.18h-.16a1.85,1.85,0,0,0-1.59,0h-.16a1.85,1.85,0,0,0-1.59,0h-.16a1.87,1.87,0,0,0-1.6,0h-.15a1.87,1.87,0,0,0-1.6,0h-.16a1.85,1.85,0,0,0-1.59,0h-.16a1.85,1.85,0,0,0-1.59,0h-.16a2,2,0,0,1-.8-.18,1.91,1.91,0,0,1-.79.18h-.16a1.85,1.85,0,0,0-1.59,0h-.16a1.85,1.85,0,0,0-1.59,0h-.16a1.87,1.87,0,0,0-1.6,0h-.16a1.85,1.85,0,0,0-1.59,0h-.16a1.85,1.85,0,0,0-1.59,0h-.16a1.91,1.91,0,0,1-.79-.18,2,2,0,0,1-.8.18h-.16a1.85,1.85,0,0,0-1.59,0h-.16a1.85,1.85,0,0,0-1.59,0h-.16a1.85,1.85,0,0,0-1.59,0h-.16a1.87,1.87,0,0,0-1.6,0h-.16a1.85,1.85,0,0,0-1.59,0h-.16a1.85,1.85,0,0,0-1.59,0h-.16a1.91,1.91,0,0,1-.79-.18,2,2,0,0,1-.8.18h-.16a1.85,1.85,0,0,0-1.59,0h-.16a1.85,1.85,0,0,0-1.59,0h-.16a1.87,1.87,0,0,0-1.6,0h-.15a1.87,1.87,0,0,0-1.6,0h-.16a1.85,1.85,0,0,0-1.59,0h-.16a1.84,1.84,0,0,1,0-3.67h.16a1.76,1.76,0,0,0,1.59,0h.16a1.78,1.78,0,0,0,1.6,0H280a1.78,1.78,0,0,0,1.6,0h.16a1.76,1.76,0,0,0,1.59,0h.16a1.76,1.76,0,0,0,1.59,0h.16a1.85,1.85,0,0,1,.8.19,1.77,1.77,0,0,1,.79-.19H287a1.76,1.76,0,0,0,1.59,0h.16a1.76,1.76,0,0,0,1.59,0h.16a1.78,1.78,0,0,0,1.6,0h.16a1.76,1.76,0,0,0,1.59,0H294a1.76,1.76,0,0,0,1.59,0h.16a1.76,1.76,0,0,0,1.59,0h.16a1.85,1.85,0,0,1,.8.19,1.77,1.77,0,0,1,.79-.19h.16a1.76,1.76,0,0,0,1.59,0H301a1.76,1.76,0,0,0,1.59,0h.16a1.78,1.78,0,0,0,1.6,0h.16a1.76,1.76,0,0,0,1.59,0h.16a1.76,1.76,0,0,0,1.59,0H308a1.77,1.77,0,0,1,.79.19,1.85,1.85,0,0,1,.8-.19h.16a1.76,1.76,0,0,0,1.59,0h.16a1.76,1.76,0,0,0,1.59,0h.16a1.78,1.78,0,0,0,1.6,0H315a1.78,1.78,0,0,0,1.6,0h.16a1.76,1.76,0,0,0,1.59,0h.16a1.76,1.76,0,0,0,1.59,0h.16a1.85,1.85,0,0,1,.8.19,1.77,1.77,0,0,1,.79-.19h.16a1.76,1.76,0,0,0,1.59,0h.16a1.76,1.76,0,0,0,1.59,0h.16a1.78,1.78,0,0,0,1.6,0h.15a1.78,1.78,0,0,0,1.6,0h.16a3.56,3.56,0,0,1,1.23,3.9l-.06.14a1.8,1.8,0,0,1-.5.65,1.88,1.88,0,0,1-.16.8l-.07.15a1.89,1.89,0,0,1-.49.65,1.92,1.92,0,0,1-.17.8l-.06.14a1.8,1.8,0,0,1-.5.65,1.74,1.74,0,0,1-.16.8l-.07.15a1.88,1.88,0,0,0-.66,1.45l-.06.14a1.88,1.88,0,0,0-.66,1.45l-.06.15a1.8,1.8,0,0,1-.5.65,1.76,1.76,0,0,1-.16.8l-.07.14a1.88,1.88,0,0,0-.66,1.45l-.06.15a1.8,1.8,0,0,1-.5.65,1.76,1.76,0,0,1-.16.8l-.07.14a1.67,1.67,0,0,1-.49.65,1.88,1.88,0,0,1-.16.8l-.07.15a1.89,1.89,0,0,1-.49.65,1.92,1.92,0,0,1-.17.8l-.06.14a1.8,1.8,0,0,1-.5.65,1.74,1.74,0,0,1-.16.8l-.07.15a1.78,1.78,0,0,1-.49.65,1.91,1.91,0,0,1-.16.8l-.07.14a1.8,1.8,0,0,1-.5.65,1.74,1.74,0,0,1-.16.8l-.06.15a1.8,1.8,0,0,1-.5.65,1.76,1.76,0,0,1-.16.8l-.07.14a1.88,1.88,0,0,0-.66,1.45l-.06.15a1.8,1.8,0,0,1-.5.65,1.76,1.76,0,0,1-.16.8l-.07.14a1.78,1.78,0,0,1-.49.65,1.88,1.88,0,0,1-.16.8l-.07.15a1.89,1.89,0,0,1-.49.65,1.92,1.92,0,0,1-.17.8l-.06.14a1.8,1.8,0,0,1-.5.65,1.74,1.74,0,0,1-.16.8l-.07.15a2,2,0,0,1-.49.65,1.92,1.92,0,0,1-.17.8l-.06.14a1.8,1.8,0,0,1-.5.65,1.74,1.74,0,0,1-.16.8l-.06.15a1.8,1.8,0,0,0-.66,1.45l-.07.14a1.88,1.88,0,0,0-.66,1.45l-.06.15a1.89,1.89,0,0,1-.5.65,1.76,1.76,0,0,1-.16.8l-.07.14a1.78,1.78,0,0,1-.49.65,1.88,1.88,0,0,1-.16.8l-.07.15a1.89,1.89,0,0,1-.5.65,1.76,1.76,0,0,1-.16.8l-.06.14a1.8,1.8,0,0,1-.5.65,1.74,1.74,0,0,1-.16.8l-.07.14a1.92,1.92,0,0,0-.66,1.46l-.06.14a1.8,1.8,0,0,1-.5.65,1.74,1.74,0,0,1-.16.8l-.07.15a1.86,1.86,0,0,1-.49.65,1.91,1.91,0,0,1-.16.8l-.07.14a1.88,1.88,0,0,0-.66,1.45l-.06.15a1.89,1.89,0,0,1-.5.65,1.7,1.7,0,0,1-.16.79l-.07.15a1.78,1.78,0,0,1-.49.65,2,2,0,0,1-.16.8l-.07.14a1.93,1.93,0,0,1-.5.66,1.72,1.72,0,0,1-.16.79l-.06.15a1.8,1.8,0,0,1-.5.65,1.74,1.74,0,0,1-.16.8l-.07.14a1.89,1.89,0,0,1-.49.65,1.93,1.93,0,0,1-.17.81l-.06.14a1.8,1.8,0,0,1-.5.65,1.74,1.74,0,0,1-.16.8l-.07.14a1.78,1.78,0,0,1-.49.65,1.85,1.85,0,0,1-.16.8l-.07.15a1.88,1.88,0,0,0-.66,1.45l-.06.14a1.8,1.8,0,0,1-.5.65,1.74,1.74,0,0,1-.16.8l-.07.15a1.88,1.88,0,0,0-.66,1.45l-.06.14a1.8,1.8,0,0,1-.5.65,1.74,1.74,0,0,1-.16.8l-.07.15a1.67,1.67,0,0,1-.49.65,1.88,1.88,0,0,1-.16.8l-.07.14a1.88,1.88,0,0,0-.66,1.45l-.06.15a1.8,1.8,0,0,1-.5.65,1.74,1.74,0,0,1-.16.8l-.07.14a1.78,1.78,0,0,1-.49.65,1.88,1.88,0,0,1-.16.8l-.07.15a1.8,1.8,0,0,1-.5.65,1.74,1.74,0,0,1-.16.8l-.06.14a1.8,1.8,0,0,1-.5.65,1.74,1.74,0,0,1-.16.8l-.07.15a1.88,1.88,0,0,0-.66,1.45l-.06.14a1.8,1.8,0,0,1-.5.65,1.74,1.74,0,0,1-.16.8l-.07.15a1.78,1.78,0,0,1-.49.65,1.88,1.88,0,0,1-.16.8l-.07.14a1.88,1.88,0,0,0-.66,1.45l-.06.15a1.8,1.8,0,0,1-.5.65,1.74,1.74,0,0,1-.16.8l-.07.14a1.88,1.88,0,0,0-.66,1.45l-.06.15a1.8,1.8,0,0,1-.5.65,1.74,1.74,0,0,1-.16.8l-.07.15a1.72,1.72,0,0,1-.49.64,2,2,0,0,1-.16.81l-.07.14A1.88,1.88,0,0,0,289,282l-.06.14a1.8,1.8,0,0,1-.5.65,1.74,1.74,0,0,1-.16.8l-.07.15a1.78,1.78,0,0,1-.49.65,1.88,1.88,0,0,1-.16.8l-.07.14a1.88,1.88,0,0,0-.66,1.45l-.06.15a1.8,1.8,0,0,1-.5.65,1.74,1.74,0,0,1-.16.8l-.07.14a1.88,1.88,0,0,0-.66,1.45l-.06.15a1.8,1.8,0,0,1-.5.65,1.74,1.74,0,0,1-.16.8l-.07.14a1.67,1.67,0,0,1-.49.65,1.88,1.88,0,0,1-.16.8l-.07.15a1.88,1.88,0,0,0-.66,1.45l-.06.14a1.8,1.8,0,0,1-.5.65,1.74,1.74,0,0,1-.16.8l-.07.15a1.78,1.78,0,0,1-.49.65,1.89,1.89,0,0,1-.17.8l-.06.14a1.8,1.8,0,0,1-.5.65,1.74,1.74,0,0,1-.16.8l-.06.15a1.8,1.8,0,0,1-.5.65,1.74,1.74,0,0,1-.16.8l-.07.14a1.88,1.88,0,0,0-.66,1.45l-.06.15a1.8,1.8,0,0,1-.5.65,1.76,1.76,0,0,1-.16.8l-.07.14a1.78,1.78,0,0,1-.49.65,1.88,1.88,0,0,1-.16.8l-.07.15a1.89,1.89,0,0,1-.49.65,1.92,1.92,0,0,1-.17.8l-.06.14a2.59,2.59,0,0,1-.19.33l.2.08a1.77,1.77,0,0,1,.8-.18h.16a1.85,1.85,0,0,0,1.59,0h.16a1.84,1.84,0,0,1,.8.18,1.76,1.76,0,0,1,.79-.18h.16a1.85,1.85,0,0,0,1.59,0h.16a1.85,1.85,0,0,0,1.59,0h.16a1.87,1.87,0,0,0,1.6,0h.16a1.85,1.85,0,0,0,1.59,0h.16a1.85,1.85,0,0,0,1.59,0h.16a1.76,1.76,0,0,1,.79.18,1.8,1.8,0,0,1,.8-.18h.16a1.8,1.8,0,0,1,.8.18,1.76,1.76,0,0,1,.79-.18h.16a1.85,1.85,0,0,0,1.59,0h.16a1.85,1.85,0,0,0,1.59,0h.16a1.87,1.87,0,0,0,1.6,0h.16a1.85,1.85,0,0,0,1.59,0h.16a1.85,1.85,0,0,0,1.59,0h.16a1.76,1.76,0,0,1,.79.18,1.84,1.84,0,0,1,.8-.18h.16a1.85,1.85,0,0,0,1.59,0h.16a1.85,1.85,0,0,0,1.59,0h.16a1.87,1.87,0,0,0,1.6,0h.15a1.87,1.87,0,0,0,1.6,0h.16a1.85,1.85,0,0,0,1.59,0h.16a1.85,1.85,0,0,0,1.59,0h.16a1.84,1.84,0,0,1,.8.18,1.76,1.76,0,0,1,.79-.18h.16a1.85,1.85,0,0,0,1.59,0h.16a1.85,1.85,0,0,0,1.59,0h.16a1.87,1.87,0,0,0,1.6,0h.15a1.83,1.83,0,1,1,0,3.66Z" transform="translate(-17.69 -22.77)" fill="#bf455b"/><path d="M300.24,295.59a1.83,1.83,0,0,1-1.83-1.83v-.16a1.85,1.85,0,0,0,0-1.59v-.16a1.87,1.87,0,0,0,0-1.6v-.16a1.85,1.85,0,0,0,0-1.59v-.16a1.85,1.85,0,0,0,0-1.59v-.16a1.76,1.76,0,0,1,.18-.79,1.84,1.84,0,0,1-.18-.8v-.16a1.85,1.85,0,0,0,0-1.59v-.16a1.85,1.85,0,0,0,0-1.59v-.16a1.87,1.87,0,0,0,0-1.6v-.15a1.87,1.87,0,0,0,0-1.6v-.16a1.85,1.85,0,0,0,0-1.59v-.16a1.85,1.85,0,0,0,0-1.59v-.16a1.76,1.76,0,0,1,.18-.79,1.84,1.84,0,0,1-.18-.8v-.16a1.85,1.85,0,0,0,0-1.59v-.16a1.85,1.85,0,0,0,0-1.59v-.16a1.87,1.87,0,0,0,0-1.6v-.15a1.87,1.87,0,0,0,0-1.6v-.16a1.85,1.85,0,0,0,0-1.59v-.16a1.85,1.85,0,0,0,0-1.59v-.16a1.84,1.84,0,0,1,.18-.8,1.76,1.76,0,0,1-.18-.79v-.16a1.85,1.85,0,0,0,0-1.59v-.16a1.85,1.85,0,0,0,0-1.59v-.16a1.87,1.87,0,0,0,0-1.6v-.16a1.85,1.85,0,0,0,0-1.59v-.16a1.85,1.85,0,0,0,0-1.59v-.16a1.76,1.76,0,0,1,.18-.79,1.84,1.84,0,0,1-.18-.8v-.16a1.8,1.8,0,0,1,.18-.8,1.76,1.76,0,0,1-.18-.79v-.16a1.85,1.85,0,0,0,0-1.59v-.16a1.85,1.85,0,0,0,0-1.59v-.16a1.87,1.87,0,0,0,0-1.6v-.16a1.85,1.85,0,0,0,0-1.59v-.16a1.85,1.85,0,0,0,0-1.59v-.16a1.76,1.76,0,0,1,.18-.79,1.84,1.84,0,0,1-.18-.8v-.16a1.85,1.85,0,0,0,0-1.59v-.16a1.85,1.85,0,0,0,0-1.59v-.16a1.87,1.87,0,0,0,0-1.6v-.15a1.87,1.87,0,0,0,0-1.6v-.16a1.85,1.85,0,0,0,0-1.59v-.16a1.85,1.85,0,0,0,0-1.59V227a1.84,1.84,0,0,1,.18-.8,1.76,1.76,0,0,1-.18-.79v-.16a1.85,1.85,0,0,0,0-1.59v-.16a1.85,1.85,0,0,0,0-1.59v-.16a1.87,1.87,0,0,0,0-1.6V220a1.85,1.85,0,0,0,0-1.59v-.16a1.85,1.85,0,0,0,0-1.59v-.16a1.85,1.85,0,0,0,0-1.59v-.16a1.84,1.84,0,0,1,.18-.8,1.76,1.76,0,0,1-.18-.79V213a1.85,1.85,0,0,0,0-1.59v-.16a1.85,1.85,0,0,0,0-1.59v-.16a1.87,1.87,0,0,0,0-1.6v-.16a1.85,1.85,0,0,0,0-1.59V206a1.85,1.85,0,0,0,0-1.59v-.16a1.83,1.83,0,1,1,3.66,0v.16a1.85,1.85,0,0,0,0,1.59v.16a1.85,1.85,0,0,0,0,1.59v.16a1.87,1.87,0,0,0,0,1.6v.16a1.85,1.85,0,0,0,0,1.59v.16a1.85,1.85,0,0,0,0,1.59v.16a1.91,1.91,0,0,1-.18.79,2,2,0,0,1,.18.8v.16a1.85,1.85,0,0,0,0,1.59v.16a1.85,1.85,0,0,0,0,1.59v.16a1.85,1.85,0,0,0,0,1.59v.16a1.87,1.87,0,0,0,0,1.6V222a1.85,1.85,0,0,0,0,1.59v.16a1.85,1.85,0,0,0,0,1.59v.16a1.91,1.91,0,0,1-.18.79,2,2,0,0,1,.18.8v.16a1.85,1.85,0,0,0,0,1.59V229a1.85,1.85,0,0,0,0,1.59v.16a1.87,1.87,0,0,0,0,1.6v.15a1.87,1.87,0,0,0,0,1.6v.16a1.85,1.85,0,0,0,0,1.59V236a1.85,1.85,0,0,0,0,1.59v.16a2,2,0,0,1-.18.8,1.91,1.91,0,0,1,.18.79v.16a1.85,1.85,0,0,0,0,1.59v.16a1.85,1.85,0,0,0,0,1.59V243a1.87,1.87,0,0,0,0,1.6v.16a1.85,1.85,0,0,0,0,1.59v.16a1.85,1.85,0,0,0,0,1.59v.16a1.91,1.91,0,0,1-.18.79,2,2,0,0,1,.18.8V250a2,2,0,0,1-.18.8,1.91,1.91,0,0,1,.18.79v.16a1.85,1.85,0,0,0,0,1.59v.16a1.85,1.85,0,0,0,0,1.59v.16a1.87,1.87,0,0,0,0,1.6V257a1.85,1.85,0,0,0,0,1.59v.16a1.85,1.85,0,0,0,0,1.59v.16a1.91,1.91,0,0,1-.18.79,2,2,0,0,1,.18.8v.16a1.85,1.85,0,0,0,0,1.59V264a1.85,1.85,0,0,0,0,1.59v.16a1.87,1.87,0,0,0,0,1.6v.15a1.87,1.87,0,0,0,0,1.6v.16a1.85,1.85,0,0,0,0,1.59V271a1.85,1.85,0,0,0,0,1.59v.16a2,2,0,0,1-.18.8,1.91,1.91,0,0,1,.18.79v.16a1.85,1.85,0,0,0,0,1.59v.16a1.85,1.85,0,0,0,0,1.59V278a1.87,1.87,0,0,0,0,1.6v.15a1.87,1.87,0,0,0,0,1.6v.16a1.85,1.85,0,0,0,0,1.59v.16a1.85,1.85,0,0,0,0,1.59V285a2,2,0,0,1-.18.8,1.91,1.91,0,0,1,.18.79v.16a1.85,1.85,0,0,0,0,1.59v.16a1.85,1.85,0,0,0,0,1.59v.16a1.87,1.87,0,0,0,0,1.6V292a1.85,1.85,0,0,0,0,1.59v.16A1.83,1.83,0,0,1,300.24,295.59Z" transform="translate(-17.69 -22.77)" fill="#bf455b"/><circle cx="114.48" cy="155.39" r="1.64" fill="#bf455b"/><circle cx="282.15" cy="172.84" r="1.64" fill="#bf455b"/><circle cx="282.15" cy="279.38" r="1.64" fill="#bf455b"/><circle cx="134.63" cy="176.35" r="1.64" fill="#bf455b"/><circle cx="93.55" cy="176.35" r="1.64" fill="#bf455b"/><circle cx="101.51" cy="192.28" r="1.64" fill="#bf455b"/><circle cx="126.35" cy="192.28" r="1.64" fill="#bf455b"/><circle cx="132.55" cy="185.35" r="1.64" fill="#bf455b"/><circle cx="96.25" cy="185.35" r="1.64" fill="#bf455b"/><circle cx="95.78" cy="167.44" r="1.64" fill="#bf455b"/><circle cx="132.55" cy="166.72" r="1.64" fill="#bf455b"/><circle cx="126.11" cy="159.08" r="1.64" fill="#bf455b"/><circle cx="102.94" cy="159.08" r="1.64" fill="#bf455b"/><path d="M300.05,275.52h-.21a1.86,1.86,0,0,1-.85-.23,2,2,0,0,1-.88.12l-.17,0a1.94,1.94,0,0,1-.83-.31,1.86,1.86,0,0,1-.88,0l-.17,0a2.17,2.17,0,0,0-1.68-.41l-.17,0a1.91,1.91,0,0,1-.77-.45,1.81,1.81,0,0,1-.88-.1l-.16-.06a1.89,1.89,0,0,1-.72-.51,1.79,1.79,0,0,1-.87-.18l-.16-.07a2,2,0,0,1-.68-.57,1.78,1.78,0,0,1-.85-.25l-.14-.09a1.7,1.7,0,0,1-.63-.62,1.81,1.81,0,0,1-.82-.32l-.15-.1a2.16,2.16,0,0,0-1.37-1.06l-.13-.11A2.17,2.17,0,0,0,284.6,269l-.12-.12a1.75,1.75,0,0,1-.45-.76,1.8,1.8,0,0,1-.72-.51l-.12-.14a1.83,1.83,0,0,1-.39-.79,1.81,1.81,0,0,1-.67-.57l-.1-.14a2.16,2.16,0,0,0-.95-1.45l-.08-.15a1.83,1.83,0,0,1-.26-.84,1.79,1.79,0,0,1-.56-.68.8.8,0,0,1-.08-.16,1.76,1.76,0,0,1-.18-.86,1.79,1.79,0,0,1-.51-.72l-.06-.17a1.76,1.76,0,0,1-.11-.87,2,2,0,0,1-.45-.76.84.84,0,0,0-.05-.17,1.88,1.88,0,0,1,0-.88,1.91,1.91,0,0,1-.38-.8l0-.17a1.78,1.78,0,0,1,0-.89,1.67,1.67,0,0,1-.31-.82l0-.17a2.23,2.23,0,0,0-.13-1.73v-.17a1.87,1.87,0,0,1,.19-.86,2,2,0,0,1-.17-.87v-.17a1.88,1.88,0,0,1,.26-.85,1.82,1.82,0,0,1-.1-.87c0-.06,0-.12,0-.18a2,2,0,0,1,.33-.82,1.74,1.74,0,0,1,0-.88l0-.17a1.85,1.85,0,0,1,.4-.79,1.88,1.88,0,0,1,.05-.88l.06-.18a1.82,1.82,0,0,1,.46-.75,1.77,1.77,0,0,1,.12-.87,1.22,1.22,0,0,1,.07-.17,2,2,0,0,1,.52-.71,1.9,1.9,0,0,1,.2-.86l.08-.15a1.8,1.8,0,0,1,.58-.67,1.85,1.85,0,0,1,.27-.84l.09-.14a2.19,2.19,0,0,0,1-1.44l.1-.14a1.86,1.86,0,0,1,.69-.56,1.76,1.76,0,0,1,.4-.78l.12-.13a1.87,1.87,0,0,1,.73-.5,1.76,1.76,0,0,1,.47-.75l.13-.12a1.71,1.71,0,0,1,.76-.43,1.75,1.75,0,0,1,.53-.71l.14-.11a1.78,1.78,0,0,1,.8-.37,1.69,1.69,0,0,1,.59-.66l.13-.1a1.89,1.89,0,0,1,.84-.3,1.71,1.71,0,0,1,.64-.61l.15-.08a2.23,2.23,0,0,0,1.54-.79l.16-.07a2.17,2.17,0,0,0,1.6-.65l.16-.06a2,2,0,0,1,.89-.09,1.86,1.86,0,0,1,.77-.42l.17-.05a2.19,2.19,0,0,0,1.69-.37l.17,0a1.75,1.75,0,0,1,.88.06,1.83,1.83,0,0,1,.84-.29l.16,0a2,2,0,0,1,.88.14,1.73,1.73,0,0,1,.85-.22h.18a1.84,1.84,0,0,1,.85.2,2,2,0,0,1,.87-.15l.18,0a1.75,1.75,0,0,1,.84.28,1.73,1.73,0,0,1,.88-.08l.17,0a1.78,1.78,0,0,1,.81.34,1.87,1.87,0,0,1,.88,0l.18,0a1.81,1.81,0,0,1,.77.42,1.77,1.77,0,0,1,.88.07l.17.06a1.73,1.73,0,0,1,.74.48,1.81,1.81,0,0,1,.88.14l.16.07a2.15,2.15,0,0,0,1.55.76l.15.08a1.91,1.91,0,0,1,.66.6,1.88,1.88,0,0,1,.83.29l.15.1a1.86,1.86,0,0,1,.6.65,1.81,1.81,0,0,1,.8.36l.14.1a2,2,0,0,1,.54.7,1.94,1.94,0,0,1,.78.43l.12.12a1.81,1.81,0,0,1,.49.74,1.72,1.72,0,0,1,.73.48l.12.13a2.2,2.2,0,0,0,1.11,1.33l.11.13a2,2,0,0,1,.35.81,1.93,1.93,0,0,1,.64.6l.1.15a1.86,1.86,0,0,1,.28.84,1.72,1.72,0,0,1,.59.66,1.09,1.09,0,0,1,.08.15,2.24,2.24,0,0,0,.75,1.56l.07.16a1.88,1.88,0,0,1,.14.87,1.81,1.81,0,0,1,.47.75l.06.16a1.9,1.9,0,0,1,.06.88,1.83,1.83,0,0,1,.41.78c0,.06,0,.12,0,.18a1.87,1.87,0,0,1,0,.88,1.89,1.89,0,0,1,.34.81l0,.18a1.87,1.87,0,0,1-.09.88,1.72,1.72,0,0,1,.28.84v.17a2,2,0,0,1-.1.73,1.94,1.94,0,0,1,.14.73V253a1.84,1.84,0,0,1-.21.85,2,2,0,0,1,.14.87l0,.18a1.79,1.79,0,0,1-.29.83,1.9,1.9,0,0,1,.07.89l0,.16a1.71,1.71,0,0,1-.36.81,1.79,1.79,0,0,1,0,.89l0,.16a1.81,1.81,0,0,1-.43.78,1.66,1.66,0,0,1-.08.88l-.06.17a1.76,1.76,0,0,1-.48.73,1.83,1.83,0,0,1-.16.88l-.07.15a1.91,1.91,0,0,1-.55.7,1.87,1.87,0,0,1-.23.85l-.08.15a2,2,0,0,1-.61.65,1.86,1.86,0,0,1-.3.83l-.1.14a2.17,2.17,0,0,0-1,1.4l-.1.13a1.87,1.87,0,0,1-.71.54,1.8,1.8,0,0,1-.43.77l-.12.12a1.71,1.71,0,0,1-.75.47,1.81,1.81,0,0,1-.49.74l-.13.11a1.88,1.88,0,0,1-.79.41,1.81,1.81,0,0,1-.55.69l-.14.1a1.74,1.74,0,0,1-.82.34,1.7,1.7,0,0,1-.61.64l-.14.09a1.75,1.75,0,0,1-.84.28,1.89,1.89,0,0,1-.67.58l-.15.08a1.75,1.75,0,0,1-.86.2,1.82,1.82,0,0,1-.71.53l-.16.06a1.75,1.75,0,0,1-.87.13,1.88,1.88,0,0,1-.75.47l-.17.05a1.77,1.77,0,0,1-.88.05,1.85,1.85,0,0,1-.79.4l-.18,0a1.7,1.7,0,0,1-.87,0,1.84,1.84,0,0,1-.83.33l-.16,0a1.85,1.85,0,0,1-.88-.1,1.89,1.89,0,0,1-.85.27h-.17a1.8,1.8,0,0,1-.87-.16A1.83,1.83,0,0,1,300.05,275.52Zm-.16-3.67h.21a1.66,1.66,0,0,1,.73.17,1.75,1.75,0,0,1,.72-.19h.15a1.54,1.54,0,0,0,1.44-.14l.15,0a1.54,1.54,0,0,0,1.43-.26l.13,0a1.73,1.73,0,0,1,.75,0,1.94,1.94,0,0,1,.66-.37l.13,0a1.93,1.93,0,0,1,.75-.08,1.9,1.9,0,0,1,.61-.42l.14-.05a1.72,1.72,0,0,1,.73-.14,1.91,1.91,0,0,1,.58-.47l.13-.07a1.53,1.53,0,0,0,1.26-.72l.13-.07a1.82,1.82,0,0,1,.7-.27,1.85,1.85,0,0,1,.49-.56L312,268a1.72,1.72,0,0,1,.67-.32,1.89,1.89,0,0,1,.45-.6l.11-.1a1.86,1.86,0,0,1,.65-.38,1.74,1.74,0,0,1,.39-.63l.1-.11a1.47,1.47,0,0,0,1-1.08l.1-.12a1.53,1.53,0,0,0,.86-1.17l.08-.13a1.91,1.91,0,0,1,.54-.52,1.72,1.72,0,0,1,.22-.71l.07-.13a2,2,0,0,1,.49-.57,1.84,1.84,0,0,1,.16-.72l.07-.14a1.78,1.78,0,0,1,.43-.61,1.93,1.93,0,0,1,.11-.74l0-.13a1.58,1.58,0,0,1,.38-.64,1.73,1.73,0,0,1,0-.75l0-.14a1.75,1.75,0,0,1,.33-.67,1.88,1.88,0,0,1,0-.75l0-.14a1.86,1.86,0,0,1,.27-.7,1.82,1.82,0,0,1-.09-.74l0-.15a1.68,1.68,0,0,1,.21-.71,1.85,1.85,0,0,1-.15-.74v-.14a1.8,1.8,0,0,1,.11-.62,2,2,0,0,1-.15-.61v-.15a2,2,0,0,1,.1-.74,1.63,1.63,0,0,1-.25-.7l0-.14a1.88,1.88,0,0,1,0-.75,1.85,1.85,0,0,1-.32-.68l0-.13a1.73,1.73,0,0,1,0-.75,1.92,1.92,0,0,1-.38-.65l0-.14a1.91,1.91,0,0,1-.09-.74,1.79,1.79,0,0,1-.42-.62l-.06-.13a1.87,1.87,0,0,1-.15-.73,1.82,1.82,0,0,1-.48-.58l-.06-.12a1.77,1.77,0,0,1-.22-.72,1.88,1.88,0,0,1-.52-.53l-.08-.12a1.56,1.56,0,0,0-.83-1.19l-.09-.12a1.75,1.75,0,0,1-.33-.67,1.86,1.86,0,0,1-.61-.44l-.09-.11a1.59,1.59,0,0,0-1-1l-.1-.1a1.76,1.76,0,0,1-.44-.61,1.82,1.82,0,0,1-.67-.33l-.11-.09a1.89,1.89,0,0,1-.49-.57,1.75,1.75,0,0,1-.7-.28l-.11-.08a1.92,1.92,0,0,1-.54-.52,2.09,2.09,0,0,1-.71-.22l-.13-.07a1.92,1.92,0,0,1-.57-.48,1.76,1.76,0,0,1-.74-.16l-.13-.06a1.78,1.78,0,0,1-.61-.43,1.93,1.93,0,0,1-.75-.09l-.13-.05a1.77,1.77,0,0,1-.65-.38,1.6,1.6,0,0,1-.75,0l-.13,0a1.78,1.78,0,0,1-.68-.32,1.83,1.83,0,0,1-.74,0l-.15,0a1.52,1.52,0,0,0-1.45-.17h-.13a1.81,1.81,0,0,1-.73-.21,1.77,1.77,0,0,1-.73.16h-.14a1.59,1.59,0,0,0-1.45.07h-.15a1.66,1.66,0,0,1-.74-.08,1.87,1.87,0,0,1-.7.28l-.14,0a1.72,1.72,0,0,1-.75,0,1.89,1.89,0,0,1-.68.34l-.13,0a1.69,1.69,0,0,1-.74,0,1.75,1.75,0,0,1-.64.39l-.14.05a1.93,1.93,0,0,1-.74.11,1.8,1.8,0,0,1-.6.44l-.14.06a1.85,1.85,0,0,1-.72.17,1.78,1.78,0,0,1-.57.48l-.12.08a1.89,1.89,0,0,1-.71.22,2.05,2.05,0,0,1-.52.54l-.13.08a1.82,1.82,0,0,1-.69.29,1.85,1.85,0,0,1-.47.58l-.12.09a1.73,1.73,0,0,1-.66.34,1.87,1.87,0,0,1-.43.62l-.1.1a1.59,1.59,0,0,0-1,1.05l-.09.1a1.82,1.82,0,0,1-.6.45,1.84,1.84,0,0,1-.32.68l-.09.12a1.52,1.52,0,0,0-.81,1.19l-.08.13a1.79,1.79,0,0,1-.52.54,1.69,1.69,0,0,1-.2.72l-.06.14a1.53,1.53,0,0,0-.61,1.32l0,.13a1.79,1.79,0,0,1-.42.62,1.75,1.75,0,0,1-.08.75s0,.09,0,.13a1.92,1.92,0,0,1-.36.66,2.11,2.11,0,0,1,0,.75l0,.14a1.82,1.82,0,0,1-.3.68,1.72,1.72,0,0,1,0,.75l0,.14a1.72,1.72,0,0,1-.25.71,1.83,1.83,0,0,1,.12.74v.14a1.79,1.79,0,0,1-.19.73,1.63,1.63,0,0,1,.17.73v.14a1.83,1.83,0,0,1-.13.74,1.71,1.71,0,0,1,.24.71v.15a1.83,1.83,0,0,1-.06.74,1.78,1.78,0,0,1,.29.69l0,.14a1.58,1.58,0,0,0,.34,1.41l0,.14a1.72,1.72,0,0,1,.07.74,1.83,1.83,0,0,1,.4.64l.05.13a1.88,1.88,0,0,1,.13.73,1.82,1.82,0,0,1,.45.6l.06.13a1.72,1.72,0,0,1,.19.72,1.76,1.76,0,0,1,.5.55l.08.13a1.82,1.82,0,0,1,.24.7,1.9,1.9,0,0,1,.55.51l.08.12a1.61,1.61,0,0,0,.9,1.15l.09.11a1.74,1.74,0,0,1,.36.65,1.83,1.83,0,0,1,.63.42l.1.1a1.81,1.81,0,0,1,.41.62,1.78,1.78,0,0,1,.66.36l.11.09a1.72,1.72,0,0,1,.46.59,1.84,1.84,0,0,1,.69.3l.12.08a1.9,1.9,0,0,1,.51.55,1.82,1.82,0,0,1,.7.24l.14.08a1.88,1.88,0,0,1,.55.5,2,2,0,0,1,.73.18l.12.07a1.69,1.69,0,0,1,.6.45,1.89,1.89,0,0,1,.74.12l.14,0a1.55,1.55,0,0,0,1.37.46l.14,0a1.8,1.8,0,0,1,.66.34,1.89,1.89,0,0,1,.75,0l.15,0a1.8,1.8,0,0,1,.68.29,1.72,1.72,0,0,1,.75-.07h.14a1.86,1.86,0,0,1,.71.23A2,2,0,0,1,299.89,271.85Z" transform="translate(-17.69 -22.77)" fill="#bf455b"/><path d="M76.73,292.56a1.84,1.84,0,0,1-1.83-1.86V189a1.84,1.84,0,1,1,3.67,0V290.7A1.85,1.85,0,0,1,76.73,292.56Z" transform="translate(-17.69 -22.77)" fill="#bf455b"/></svg>