<svg 
    id="a38cf0d3-f946-48e7-a9d9-00184ce24054" 
    data-name="Layer 1" 
    xmlns="http://www.w3.org/2000/svg" 
    viewBox="0 0 132.51 284.16"
    class='svg'>
    <title>R_dark</title>
    <!-- <path 
        d="M131.61,38.38a7.91,7.91,0,1,0-7.91,8A8,8,0,0,0,131.61,38.38Z" 
        transform="translate(-106.86 -21.42)" 
        fill="none" 
        stroke="#1a0606" 
        stroke-miterlimit="10" 
        stroke-width="3"
        class="path"/>
    <path 
        d="M158.42,129.84c-.61-.06-1.22-.12-1.83-.21l-.59-.08c-.77-.11-1.54-.26-2.3-.42l-.46-.11c-.62-.15-1.24-.31-1.86-.49l-.35-.09a47,47,0,1,0,3.25-71.61l.19,0,1-.17c.25,0,.49-.09.74-.12l1.05-.13.7-.09,1.18-.08.58-.05c.59,0,1.18,0,1.78,0a36.94,36.94,0,0,1,0,73.87c-.8,0-1.59,0-2.39-.09Z" 
        transform="translate(-106.86 -21.42)" 
        fill="none" 
        stroke="#1a0606" 
        stroke-miterlimit="10" 
        stroke-width="3"
        class="path"/> -->
    <path 
        d="M237.47,298.64l-38-75.59H210.9a2.12,2.12,0,0,0,0-4.23H197.33l-3.76-7.49h10.55a2.12,2.12,0,0,0,0-4.23H191.44l-3.27-6.51h8.2a2.12,2.12,0,0,0,0-4.23H186l-26.79-53.27a53.56,53.56,0,0,0,23.55,5.44c29.83,0,54.1-24.45,54.1-54.51s-24.27-54.51-54.1-54.51A53.73,53.73,0,0,0,155.37,47,54.6,54.6,0,0,0,136,66.77a.89.89,0,0,0-.08.17c-.05.1-.1.2-.14.3a2.53,2.53,0,0,0-.12.36c0,.1-.06.2-.08.3a2.57,2.57,0,0,0-.05.4,2.46,2.46,0,0,0,0,.28,1.85,1.85,0,0,0,0,.41c0,.1,0,.19,0,.28a3.6,3.6,0,0,0,.12.44,1.8,1.8,0,0,0,.06.22,4.51,4.51,0,0,0,.29.63.76.76,0,0,1,.08.11,3.1,3.1,0,0,0,.35.46l0,.05.16.14a2.83,2.83,0,0,0,.25.24l.08.06.27.17.33.2.28.12.37.13.29.06a2.63,2.63,0,0,0,.39.06h.29l.39,0,.29,0,.39-.11a1.38,1.38,0,0,0,.27-.08,3,3,0,0,0,.41-.19,2.39,2.39,0,0,0,.22-.12,3.28,3.28,0,0,0,.57-.43,29,29,0,0,1,19.81-7.8,29.45,29.45,0,1,1-21.68,49.21,4.05,4.05,0,0,0-.53-.49l-.21-.13c-.13-.08-.25-.16-.39-.23l-.26-.11a2.84,2.84,0,0,0-.38-.13,1.4,1.4,0,0,0-.28-.06,2.63,2.63,0,0,0-.39-.06h-.69l-.29,0a2.62,2.62,0,0,0-.38.09l-.29.09-.35.17c-.09.05-.19.09-.28.15l-.08,0a1.93,1.93,0,0,0-.28.22l-.17.12,0,0a4.08,4.08,0,0,0-.4.44l-.08.09a4.48,4.48,0,0,0-.35.6c0,.07,0,.15-.08.22a3.12,3.12,0,0,0-.15.43,2.56,2.56,0,0,0-.05.27,2.9,2.9,0,0,0-.06.41,2.62,2.62,0,0,0,0,.28c0,.14,0,.27,0,.41s0,.2,0,.3a2.49,2.49,0,0,0,.09.37c0,.1.07.21.11.31l.06.18a54.44,54.44,0,0,0,15,19.44,3.54,3.54,0,0,0-.11.44L127.41,257.35V101.67h24.23v2.44a2.1,2.1,0,1,0,4.2,0v-2.44h3.55v2.44a2.1,2.1,0,1,0,4.2,0v-2.44h3.55v2.44a2.1,2.1,0,1,0,4.2,0v-2.44H182.8a3.75,3.75,0,0,0,0-7.49H171.34V90.12a2.1,2.1,0,1,0-4.2,0v4.06h-3.55V90.12a2.1,2.1,0,1,0-4.2,0v4.06h-3.55V90.12a2.1,2.1,0,1,0-4.2,0v4.06H127.41V53.35a15.34,15.34,0,1,0-7.42,0V300a3.71,3.71,0,0,0,7.37.65L154,149.11l23.76,47.25h-9.44a2.12,2.12,0,0,0,0,4.23h11.57l3.27,6.51H176a2.12,2.12,0,0,0,0,4.23h9.22l3.76,7.49h-6.19a2.12,2.12,0,0,0,0,4.23h8.32l39.72,79a3.68,3.68,0,0,0,5,1.65A3.75,3.75,0,0,0,237.47,298.64ZM115.79,38.38a7.91,7.91,0,1,1,7.91,8A8,8,0,0,1,115.79,38.38ZM198.15,93a36.84,36.84,0,0,0-36.66-36.93c-.6,0-1.19,0-1.78,0l-.58.05-1.18.08-.7.09-1.05.13c-.25,0-.49.08-.74.12l-1,.17-.19,0A47,47,0,1,1,151,128.44l.35.09c.62.18,1.24.34,1.86.49l.46.11c.76.16,1.53.31,2.3.42l.59.08c.61.09,1.22.15,1.83.21l.68,0c.8.05,1.59.09,2.39.09A36.84,36.84,0,0,0,198.15,93Z" 
        transform="translate(-106.86 -21.42)" 
        fill="" 
        stroke="#1a0606" 
        stroke-miterlimit="10" 
        stroke-width="3"
        class="path"
        />
</svg>