<svg id="a390a17c-b872-4fa3-a263-4ae2a23ab58c" data-name="Layer 1" xmlns="http://www.w3.org/2000/svg" viewBox="0 0 130.49 281.16"><title>R_red</title><path d="M231.27,310.66a3.74,3.74,0,0,1-3.34-2.05L150.45,155.7,123.66,307.24a3.74,3.74,0,0,1-7.43-.65V59.6a3.74,3.74,0,0,1,7.48,0V263.94L145,143.35a3.74,3.74,0,0,1,7-1L234.6,305.23a3.74,3.74,0,0,1-3.33,5.43Z" transform="translate(-104.52 -29.5)" fill="#bf455b"/><path d="M120,60.42A15.46,15.46,0,1,1,135.43,45,15.47,15.47,0,0,1,120,60.42ZM120,37a8,8,0,1,0,8,8A8,8,0,0,0,120,37Z" transform="translate(-104.52 -29.5)" fill="#bf455b"/><path d="M179.52,108.25H121.27a3.74,3.74,0,0,1,0-7.48h58.25a3.74,3.74,0,0,1,0,7.48Z" transform="translate(-104.52 -29.5)" fill="#bf455b"/><path d="M150.24,112.81a2.12,2.12,0,0,1-2.12-2.12v-14a2.12,2.12,0,0,1,4.23,0v14A2.12,2.12,0,0,1,150.24,112.81Z" transform="translate(-104.52 -29.5)" fill="#bf455b"/><path d="M158.05,112.81a2.12,2.12,0,0,1-2.12-2.12v-14a2.12,2.12,0,0,1,4.23,0v14A2.12,2.12,0,0,1,158.05,112.81Z" transform="translate(-104.52 -29.5)" fill="#bf455b"/><path d="M165.85,112.81a2.12,2.12,0,0,1-2.11-2.12v-14a2.12,2.12,0,0,1,4.23,0v14A2.12,2.12,0,0,1,165.85,112.81Z" transform="translate(-104.52 -29.5)" fill="#bf455b"/><path d="M179.52,155.11A54.52,54.52,0,0,1,130,123.46a3.74,3.74,0,0,1,6.17-4.08A29.45,29.45,0,1,0,138.09,78a3.75,3.75,0,0,1-5.78-4.63,54.51,54.51,0,1,1,47.21,81.76Zm-32-20.09a47,47,0,1,0,3.28-71.61,36.93,36.93,0,1,1,7.26,73.15A36.57,36.57,0,0,1,147.51,135Z" transform="translate(-104.52 -29.5)" fill="#bf455b"/><path d="M133.43,121.89" transform="translate(-104.52 -29.5)" fill="#bf455b" stroke="#fff" stroke-linecap="round" stroke-linejoin="round" stroke-width="23"/><path d="M135.55,75.23" transform="translate(-104.52 -29.5)" fill="#bf455b" stroke="#fff" stroke-linecap="round" stroke-linejoin="round" stroke-width="23"/><path d="M158.05,136.56a37,37,0,0,1-27.4-12.16,3.74,3.74,0,0,1,5.55-5A29.45,29.45,0,1,0,138.09,78a3.74,3.74,0,0,1-5.08-5.5,36.93,36.93,0,1,1,25,64.08Z" transform="translate(-104.52 -29.5)" fill="#bf455b"/><path d="M193.19,207.18H164.88a2.12,2.12,0,1,1,0-4.23h28.31a2.12,2.12,0,1,1,0,4.23Z" transform="translate(-104.52 -29.5)" fill="#bf455b"/><path d="M201,217.92H172.69a2.12,2.12,0,1,1,0-4.23H201a2.12,2.12,0,1,1,0,4.23Z" transform="translate(-104.52 -29.5)" fill="#bf455b"/><path d="M207.83,229.63H179.52a2.12,2.12,0,0,1,0-4.23h28.31a2.12,2.12,0,1,1,0,4.23Z" transform="translate(-104.52 -29.5)" fill="#bf455b"/></svg>