<svg id="ada56f72-2ac4-4420-ae4a-3c69af8501c7" data-name="Capa 1" xmlns="http://www.w3.org/2000/svg" viewBox="0 0 116.6 79.21"><title>analytics_grey</title><path d="M87.9,48l-3.34,5.37A5.15,5.15,0,0,0,81,53.16l-3.29-5.9a11.67,11.67,0,0,0-2.5,1.36l3.38,6.07a5.23,5.23,0,1,0,8.19.5l3.39-5.46A11.92,11.92,0,0,0,87.9,48ZM82.49,61.54a3.36,3.36,0,1,1,3.36-3.36A3.37,3.37,0,0,1,82.49,61.54Z" transform="translate(0 -18.69)" fill="#d9d7d7"/><path d="M94.26,43.18,103.1,29a5.24,5.24,0,1,0-3.79-5,5.21,5.21,0,0,0,1.37,3.52L91.92,41.54A21.88,21.88,0,0,1,94.26,43.18Zm10.28-22.61a3.36,3.36,0,1,1-3.36,3.36A3.36,3.36,0,0,1,104.54,20.57Z" transform="translate(0 -18.69)" fill="#d9d7d7"/><path d="M65.5,35.56a5.12,5.12,0,0,0,2.39-.09L71.51,42A19,19,0,0,1,74,40.59L70.32,34a5.23,5.23,0,1,0-7.37.29L51.18,58.82a5.5,5.5,0,0,0-1.47-.21,5.2,5.2,0,0,0-1.43.2L37.73,39.3A5.24,5.24,0,1,0,28.4,36a5.48,5.48,0,0,0,.24,1.57L8.75,50a5.23,5.23,0,1,0,1.72,3.87,5.05,5.05,0,0,0-.21-1.46L30.21,40a5.26,5.26,0,0,0,3.43,1.28A5.11,5.11,0,0,0,35.39,41L45.85,60.31a5.23,5.23,0,1,0,7.76,0Zm1-8.5a3.36,3.36,0,1,1-3.36,3.36A3.37,3.37,0,0,1,66.49,27.06ZM5.24,57.23A3.36,3.36,0,1,1,8.6,53.87,3.37,3.37,0,0,1,5.24,57.23ZM33.64,39.4A3.37,3.37,0,1,1,37,36,3.36,3.36,0,0,1,33.64,39.4ZM49.71,67.21a3.37,3.37,0,1,1,3.36-3.37A3.36,3.36,0,0,1,49.71,67.21Z" transform="translate(0 -18.69)" fill="#d9d7d7"/><path d="M116,94,95.09,70a17.89,17.89,0,1,0-3.58,3.12l20.92,24A2.37,2.37,0,0,0,116,94ZM90.29,68.06a13.15,13.15,0,1,1,1.28-18.55A13.15,13.15,0,0,1,90.29,68.06Z" transform="translate(0 -18.69)" fill="#d9d7d7"/></svg>