<svg id="f350b2f7-000f-4e3b-89f4-d9ec8690d05e" data-name="Layer 1" xmlns="http://www.w3.org/2000/svg" viewBox="0 0 204.36 134.28"><title>orders_white</title><path d="M706.4,444.3H594.14l-46,41.4v80.42a12.47,12.47,0,0,0,12.46,12.46H740a12.47,12.47,0,0,0,12.46-12.46V485.7ZM745,566.12a5.06,5.06,0,0,1-5,5H560.55a5.06,5.06,0,0,1-5-5V495.47h51.84a43.22,43.22,0,0,0,85.86,0H745Zm-58.89-78.06-.11,3.59a35.79,35.79,0,0,1-71.54,0l-.11-3.59H556.56L597,451.71H703.55L744,488.06Z" transform="translate(-548.09 -444.3)" fill="#f2f2f2"/></svg>