<svg id="ba0449bb-7df9-4f51-9b43-61e5058681f5" data-name="Layer 1" xmlns="http://www.w3.org/2000/svg" viewBox="0 0 126.03 126.03"><title>products_grey</title><path d="M701.8,449.07H598A11.14,11.14,0,0,0,586.9,460.2V564A11.14,11.14,0,0,0,598,575.1H701.8A11.14,11.14,0,0,0,712.93,564V460.2A11.14,11.14,0,0,0,701.8,449.07Zm3.71,11.13v48.18H653.62V456.49H701.8A3.71,3.71,0,0,1,705.51,460.2ZM594.31,564V460.2a3.72,3.72,0,0,1,3.71-3.71h48.19V567.68H598A3.72,3.72,0,0,1,594.31,564Zm107.49,3.71H653.62V515.79h51.89V564A3.71,3.71,0,0,1,701.8,567.68Z" transform="translate(-586.9 -449.07)" fill="#d9d7d7"/></svg>