<?xml version="1.0" standalone="no"?>
<!DOCTYPE svg PUBLIC "-//W3C//DTD SVG 20010904//EN"
 "http://www.w3.org/TR/2001/REC-SVG-20010904/DTD/svg10.dtd">
<svg version="1.0" xmlns="http://www.w3.org/2000/svg"
 width="1173.000000pt" height="1173.000000pt" viewBox="0 0 1173.000000 1173.000000"
 preserveAspectRatio="xMidYMid meet">
<metadata>
Created by potrace 1.11, written by Peter Selinger 2001-2013
</metadata>
<g transform="translate(0.000000,1173.000000) scale(0.100000,-0.100000)"
fill="#000000" stroke="none">
<path d="M3715 11718 c-210 -23 -406 -160 -503 -353 -50 -101 -66 -172 -65
-301 0 -170 60 -311 188 -440 62 -63 98 -90 164 -122 46 -23 92 -42 102 -42
10 0 21 -5 24 -10 4 -6 6 -2327 6 -5158 0 -5076 0 -5148 20 -5188 46 -96 181
-113 256 -32 29 32 38 68 89 373 3 17 16 89 29 160 13 72 26 146 29 165 3 19
12 71 20 115 14 75 45 248 67 375 5 30 11 66 14 80 6 32 23 124 30 170 3 19
17 98 31 175 36 201 54 306 60 340 2 17 9 53 14 80 5 28 12 65 15 83 12 75 16
101 31 177 8 44 22 118 29 165 8 47 17 96 20 110 5 26 20 116 30 185 4 22 10
56 15 75 5 19 11 53 14 75 4 22 11 63 16 90 5 28 12 66 15 85 13 80 57 330 70
395 7 39 16 88 20 110 3 23 7 50 9 62 3 11 7 36 10 54 3 19 8 45 11 59 3 14
10 52 15 85 5 33 12 71 15 85 3 14 7 39 10 55 3 17 16 93 30 170 13 77 27 156
30 175 3 19 8 42 10 50 2 8 6 31 9 50 3 19 21 123 40 230 19 107 38 211 41
230 3 19 12 71 21 115 8 45 16 94 19 110 3 26 25 149 41 235 14 76 35 199 40
229 3 18 8 43 10 55 2 11 13 73 25 136 23 132 22 127 49 280 12 63 23 126 25
140 3 14 10 53 15 87 19 118 18 119 109 -64 46 -92 136 -271 200 -398 64 -126
228 -450 364 -719 137 -268 252 -496 257 -505 33 -63 80 -160 80 -163 0 -2
-91 -3 -202 -3 -229 0 -256 -6 -272 -62 -10 -39 7 -88 37 -104 12 -7 117 -12
275 -12 l256 -2 68 -132 c56 -109 65 -133 51 -134 -10 0 -76 -1 -148 -1 -71 0
-144 -4 -161 -9 -56 -17 -75 -91 -35 -140 19 -24 23 -24 236 -29 l217 -5 74
-145 c41 -80 74 -148 74 -152 0 -5 -63 -8 -141 -8 l-141 0 -29 -29 c-39 -40
-39 -82 0 -122 l29 -29 191 0 190 0 87 -172 c47 -95 151 -299 229 -453 78
-154 238 -469 355 -700 117 -231 288 -568 380 -750 92 -181 270 -532 395 -780
125 -247 235 -458 244 -469 37 -42 121 -63 171 -43 60 25 99 81 102 146 1 43
0 46 -457 946 -95 187 -268 529 -385 760 -117 231 -279 551 -360 710 -256 503
-400 791 -400 798 0 4 113 7 251 7 l251 0 29 29 c39 40 39 82 0 122 l-29 29
-301 0 -300 0 -70 137 c-39 76 -73 146 -77 156 -5 16 10 17 231 17 l236 0 24
25 c45 44 31 123 -24 144 -15 6 -137 9 -295 8 l-270 -1 -61 120 c-34 65 -64
127 -68 136 -6 16 6 17 141 17 81 -1 165 -1 188 0 69 2 109 60 83 122 -20 50
-49 56 -287 55 -117 -1 -217 1 -221 4 -5 3 -95 176 -201 385 -106 209 -275
542 -375 740 -505 995 -546 1077 -528 1072 10 -3 68 -26 128 -51 114 -47 325
-109 408 -120 26 -4 70 -11 98 -16 150 -29 477 -31 636 -4 31 5 176 32 210 38
127 25 344 105 507 187 102 51 332 195 372 233 6 6 31 27 55 46 60 48 245 233
300 300 122 150 198 268 284 440 30 60 55 111 55 115 0 3 9 24 19 48 40 88
105 310 125 427 3 19 8 46 11 59 2 13 7 49 10 80 4 31 8 72 11 91 6 46 5 348
0 380 -3 14 -7 49 -10 79 -35 326 -170 695 -360 980 -377 566 -974 932 -1646
1009 -125 14 -467 7 -585 -12 -653 -104 -1203 -456 -1563 -1000 -65 -99 -86
-138 -90 -172 -11 -99 65 -179 166 -176 42 2 62 13 147 82 128 102 247 170
380 215 351 118 748 73 1048 -119 288 -185 488 -475 554 -805 21 -105 24 -306
7 -416 -75 -490 -445 -892 -924 -1004 -118 -28 -170 -34 -285 -34 -328 1 -606
115 -857 351 -102 96 -132 111 -203 98 -43 -8 -94 -50 -111 -93 -25 -58 -17
-94 42 -209 117 -227 243 -395 436 -587 l150 -148 -6 -43 c-4 -24 -9 -56 -12
-72 -19 -107 -64 -355 -68 -384 -3 -19 -8 -48 -12 -65 -3 -16 -16 -91 -29
-165 -28 -161 -63 -357 -69 -385 -2 -11 -7 -40 -11 -65 -4 -25 -9 -54 -11 -65
-2 -11 -9 -47 -15 -80 -5 -33 -12 -71 -15 -85 -2 -14 -18 -101 -34 -195 -41
-235 -39 -224 -50 -280 -5 -27 -21 -115 -35 -195 -13 -80 -38 -221 -55 -315
-35 -197 -34 -191 -55 -315 -9 -52 -27 -153 -40 -225 -25 -137 -35 -194 -41
-235 -2 -14 -19 -110 -38 -215 -19 -104 -37 -203 -40 -220 -3 -16 -13 -73 -22
-125 -9 -52 -18 -102 -19 -110 -1 -8 -5 -28 -8 -45 -4 -16 -9 -45 -12 -62 -11
-68 -16 -101 -35 -203 -28 -157 -32 -183 -36 -205 -2 -11 -5 -31 -8 -45 -3
-14 -21 -117 -41 -230 -20 -113 -42 -238 -49 -278 -7 -40 -15 -74 -17 -76 -2
-3 -4 1443 -4 3212 l0 3217 505 0 505 0 5 -66 c6 -84 30 -119 82 -119 70 0 98
37 98 130 l0 59 73 -2 72 -2 1 -45 c2 -84 4 -91 29 -115 32 -33 84 -33 120 -2
24 20 27 31 29 92 l2 70 72 2 72 1 0 -63 c0 -54 4 -68 26 -94 35 -42 88 -43
127 -3 24 25 27 36 27 95 l0 66 203 0 c338 -1 318 -2 365 28 39 25 57 56 69
113 6 31 -9 80 -34 110 -50 60 -61 62 -345 63 l-258 0 0 87 c0 102 -12 143
-46 159 -41 18 -74 13 -105 -18 -28 -29 -29 -32 -29 -129 l0 -100 -72 1 -73 0
0 90 c0 49 -5 102 -12 118 -15 37 -51 53 -97 45 -56 -11 -70 -40 -70 -155 l-1
-97 -72 -1 -73 -1 0 98 c0 91 -2 101 -26 129 -33 40 -79 42 -123 5 -31 -26
-31 -26 -31 -128 l0 -103 -505 0 c-278 0 -506 3 -506 6 -7 34 -3 1679 4 1689
5 6 16 12 25 12 36 0 181 82 239 135 93 84 177 221 198 322 20 95 23 150 11
258 -13 122 -104 294 -201 378 -145 127 -324 185 -510 165z m211 -342 c65 -30
131 -96 163 -166 36 -79 36 -192 -1 -270 -98 -209 -366 -258 -531 -95 -152
149 -120 406 62 513 95 55 210 62 307 18z m2619 -681 c645 -96 1191 -491 1478
-1070 46 -91 117 -274 132 -335 37 -155 50 -224 64 -350 9 -81 7 -349 -4 -415
-6 -42 -21 -129 -31 -180 -34 -186 -150 -463 -272 -650 -318 -488 -819 -802
-1409 -882 -118 -16 -437 -9 -543 12 -14 3 -41 8 -60 11 -306 54 -682 237
-910 444 -32 29 -33 31 -10 26 173 -41 425 -59 565 -41 521 68 945 358 1193
815 195 361 232 808 100 1203 -188 564 -678 968 -1268 1045 -74 9 -339 9 -420
-1 l-65 -9 100 67 c163 108 454 240 597 269 13 3 55 12 93 20 100 21 130 25
220 32 44 4 81 8 82 9 10 8 279 -7 368 -20z"/>
</g>
</svg>
