<?xml version="1.0" standalone="no"?>
<!DOCTYPE svg PUBLIC "-//W3C//DTD SVG 20010904//EN"
 "http://www.w3.org/TR/2001/REC-SVG-20010904/DTD/svg10.dtd">
<svg version="1.0" xmlns="http://www.w3.org/2000/svg"
 width="1264.000000pt" height="1264.000000pt" viewBox="0 0 1264.000000 1264.000000"
 preserveAspectRatio="xMidYMid meet">
<metadata>
Created by potrace 1.11, written by Peter Selinger 2001-2013
</metadata>
<g transform="translate(0.000000,1264.000000) scale(0.100000,-0.100000)"
fill="#000000" stroke="none">
<path d="M10 6315 l0 -6315 6315 0 6315 0 0 6315 0 6315 -6315 0 -6315 0 0
-6315z m4885 6011 c203 -70 350 -216 422 -421 25 -72 28 -93 28 -210 0 -117
-3 -138 -28 -210 -70 -198 -215 -347 -404 -415 l-63 -23 0 -873 0 -874 519 0
519 0 4 106 c3 102 4 107 31 130 42 36 98 33 131 -7 24 -28 26 -38 26 -130 l0
-99 75 0 75 0 0 96 c0 126 20 163 88 164 76 0 102 -45 102 -175 l0 -85 70 0
70 0 0 85 c0 131 26 175 103 175 27 0 41 -7 61 -31 24 -28 26 -38 26 -130 l0
-99 263 0 c257 0 265 -1 308 -23 60 -32 94 -97 84 -162 -8 -58 -61 -120 -113
-135 -21 -5 -150 -10 -289 -10 l-253 0 0 -64 c0 -55 -4 -69 -26 -95 -28 -33
-75 -42 -116 -20 -28 15 -48 69 -48 129 l0 50 -70 0 -70 0 0 -42 c0 -100 -33
-148 -101 -148 -29 0 -43 7 -63 31 -22 26 -26 40 -26 95 l0 64 -75 0 -75 0 0
-66 c0 -59 -3 -68 -29 -95 -38 -37 -88 -39 -128 -5 -24 21 -28 32 -31 95 l-4
71 -519 0 -519 0 1 -3317 c1 -1908 5 -3299 10 -3273 5 25 209 1182 455 2571
l447 2526 -155 154 c-206 204 -352 403 -465 634 -38 78 -44 97 -40 138 10 109
119 176 224 136 15 -6 66 -47 113 -93 245 -238 537 -358 875 -360 160 -1 247
12 393 60 420 137 739 480 840 904 29 121 34 168 33 304 -1 401 -187 765 -513
1007 -147 109 -353 197 -538 230 -109 20 -336 17 -440 -5 -225 -47 -421 -140
-580 -276 -70 -60 -110 -80 -157 -80 -90 1 -169 88 -160 178 9 85 203 357 387
543 375 378 838 606 1380 680 52 7 181 13 285 13 105 0 233 -6 285 -13 970
-132 1747 -816 1985 -1746 56 -217 69 -332 69 -580 1 -247 -13 -359 -68 -579
-238 -939 -1037 -1638 -2002 -1751 -400 -47 -827 16 -1195 174 l-88 38 300
-591 c164 -325 424 -837 576 -1138 l277 -547 243 -3 243 -3 26 -26 c39 -40 38
-93 -4 -130 l-32 -29 -191 0 -190 0 68 -132 69 -133 289 -5 c160 -3 298 -9
308 -14 23 -11 47 -58 47 -91 0 -16 -12 -38 -29 -56 l-29 -29 -241 0 c-133 0
-241 -2 -241 -5 0 -3 35 -75 77 -160 l78 -155 311 0 311 0 27 -25 c32 -30 36
-91 7 -126 -19 -24 -20 -24 -290 -29 l-271 -5 826 -1630 c454 -896 828 -1644
831 -1662 9 -52 -6 -100 -40 -137 -61 -64 -157 -69 -224 -12 -18 15 -320 601
-893 1732 l-866 1709 -200 3 c-201 2 -201 2 -225 28 -35 37 -33 98 4 130 27
23 34 24 178 24 l149 0 -80 160 -80 160 -216 0 -216 0 -29 29 c-20 20 -29 39
-29 61 0 83 40 100 240 100 l150 0 -67 135 -68 135 -258 0 c-283 0 -304 4
-326 58 -15 37 -6 74 26 104 24 22 31 23 242 28 l218 5 -504 995 c-278 547
-508 998 -511 1002 -4 4 -265 -1454 -581 -3240 -428 -2427 -578 -3258 -595
-3291 -31 -66 -64 -86 -141 -86 -76 0 -109 20 -142 85 l-23 44 0 5312 0 5312
-37 13 c-118 38 -243 124 -317 219 -300 381 -113 933 358 1061 105 28 263 22
371 -15z"/>
<path d="M4633 12029 c-110 -14 -204 -86 -255 -195 -27 -59 -30 -71 -26 -152
4 -104 27 -159 94 -226 132 -132 348 -133 479 -1 77 76 114 194 95 295 -36
189 -194 303 -387 279z"/>
<path d="M7013 11309 c-222 -26 -458 -98 -668 -203 -124 -63 -321 -184 -312
-192 1 -2 34 1 72 7 94 14 352 13 445 -1 240 -36 454 -120 661 -258 437 -292
699 -786 699 -1317 0 -616 -348 -1168 -905 -1435 -215 -103 -373 -140 -630
-147 -195 -6 -336 8 -453 42 l-47 14 35 -30 c302 -261 663 -426 1055 -484 146
-22 404 -22 559 0 898 125 1603 837 1722 1739 22 165 15 466 -15 621 -165 878
-885 1549 -1763 1644 -111 13 -349 12 -455 0z"/>
</g>
</svg>
